<svg width="117" height="44" fill="none" xmlns="http://www.w3.org/2000/svg"><mask id="a" style="mask-type:luminance" maskUnits="userSpaceOnUse" x="5" y="7" width="29" height="32"><path d="M5.834 7.066h27.73V38.09H5.833V7.066z" fill="#fff"/></mask><g mask="url(#a)"><path d="M7.17 14.283c.135 1.791.45 4.856 1.16 7.903.488 2.1 1.163 4.196 2.089 5.844 1.374 2.45 3.297 4.397 5.107 5.852a27.236 27.236 0 004.176 2.76 27.211 27.211 0 004.167-2.753c1.808-1.453 3.734-3.403 5.113-5.859.921-1.645 1.596-3.739 2.083-5.841.707-3.049 1.025-6.115 1.16-7.906-1.767-.81-3.019-1.882-3.9-2.987a9.934 9.934 0 01-1.62-2.946h-14.01a9.846 9.846 0 01-2.089 3.489c-.84.908-1.96 1.767-3.436 2.444zm-.083 8.186c-.791-3.407-1.107-6.816-1.222-8.546l-.03-.452.421-.176c1.498-.621 2.602-1.445 3.41-2.316a8.603 8.603 0 001.95-3.441l.135-.46h15.897l.136.46c.25.854.71 1.93 1.539 2.967.833 1.042 2.05 2.056 3.815 2.79l.422.176-.03.452c-.115 1.73-.433 5.142-1.222 8.549-.51 2.203-1.225 4.41-2.213 6.175-1.473 2.624-3.515 4.696-5.428 6.232a28.244 28.244 0 01-4.673 3.042l-.294.149-.29-.149a28.292 28.292 0 01-4.683-3.05c-1.916-1.538-3.954-3.608-5.422-6.224-.99-1.767-1.707-3.977-2.218-6.178z" fill="#fff"/></g><path d="M19.326 12.688h2.54c2.67-.158 3.359-.185 3.756-.185h.423c5.263 0 8.014 1.447 8.014 4.182 0 1.342-.635 2.315-1.878 2.946-.846.421-1.454.684-3.174 1.026 1.72.21 2.46.474 3.439.973 1.587.868 2.46 2.315 2.46 3.998 0 .973-.344 1.946-.953 2.657-1.19 1.394-2.856 1.946-6.11 1.946h-8.517v-.369c.82-.341 1.058-.762 1.058-1.735V14.791c0-.973-.238-1.394-1.058-1.736v-.368zm5.37 7.653h1.216c2.83 0 4.259-1.21 4.259-3.63 0-2.208-1.375-3.524-3.624-3.524-1.349 0-1.851.421-1.851 1.552v5.602zm0 .869v6.89c0 1.079.529 1.473 1.93 1.473.715 0 1.296-.105 1.773-.289 1.296-.552 2.222-2.183 2.222-3.971 0-2.71-1.561-4.103-4.603-4.103h-1.322zM51.7 31.415v.578c-5.21-1.973-7.776-4.708-9.046-9.863-.185.026-.344.026-.423.026h-.344c-.317 0-.582 0-1.085-.079v6.05c0 .973.238 1.394 1.058 1.736v.368h-6.453v-.369c.82-.341 1.058-.762 1.058-1.735V14.792c0-.973-.238-1.394-1.058-1.736v-.368h2.036c.45 0 1.27-.026 2.354-.106a66.555 66.555 0 013.597-.13c4.894 0 7.565 1.708 7.565 4.839 0 1.367-.608 2.63-1.745 3.471-.476.369-1.323.737-2.513 1.105 1.481 4.866 3.306 8.495 4.999 9.548zM40.802 15.029v6.233c.345.026.583.053.768.053h.555c2.989 0 4.523-1.368 4.523-3.998 0-2.315-1.798-4.13-4.02-4.13-1.297 0-1.826.5-1.826 1.842z" fill="#fff"/><path d="M53.92 24.602l-1.111 3.524a1.49 1.49 0 00-.106.58c0 .604.397.946 1.534 1.183v.342h-4.549v-.342c1.031-.29 1.56-.737 1.957-1.763l5.132-15.597h3.385l5.026 15.597c.344.974.82 1.553 1.455 1.763v.342h-6.454v-.342c.608-.21.846-.474.846-1 0-.21-.053-.473-.158-.763l-1.138-3.524H53.92zm.423-1.052h5.052l-2.539-7.759-2.513 7.759zM74.47 30.23h-3.358l-5.185-15.438c-.344-.974-.794-1.473-1.455-1.763v-.341H70.9v.341c-.53.21-.794.553-.794 1 0 .236.053.473.159.763l4.127 12.467 3.94-12.467c.054-.184.08-.369.08-.553 0-.657-.37-.973-1.508-1.21v-.341h4.417v.341c-.952.29-1.507.79-1.851 1.763l-5 15.439z" fill="#fff"/><path d="M93.487 12.688l.291 3.366h-.608c-.82-1.894-1.984-2.71-4.074-2.71h-1.428c-1.243 0-1.746.422-1.746 1.474v5.26h2.407c1.693 0 2.54-.552 2.724-1.814h.556v4.497h-.556c-.079-1.341-.846-1.92-2.724-1.92h-2.407v7.049c0 1.341.476 1.683 2.248 1.683h1.297c2.46 0 3.861-.947 4.708-3.183l.555.21-.952 3.63H80.526v-.368c.82-.341 1.058-.762 1.058-1.736V14.792c0-.974-.238-1.394-1.058-1.736v-.368h12.961zM111.286 31.415v.578c-5.21-1.973-7.776-4.708-9.046-9.863-.185.026-.343.026-.423.026h-.343c-.318 0-.583 0-1.085-.079v6.05c0 .973.238 1.394 1.058 1.736v.368h-6.454v-.369c.82-.341 1.058-.762 1.058-1.735V14.792c0-.973-.238-1.394-1.058-1.736v-.368h2.037c.45 0 1.27-.026 2.354-.106a66.565 66.565 0 013.597-.13c4.893 0 7.565 1.708 7.565 4.839 0 1.367-.609 2.63-1.746 3.471-.476.369-1.322.737-2.512 1.105 1.481 4.866 3.306 8.495 4.998 9.548zm-10.897-16.386v6.233c.344.026.582.053.767.053h.555c2.989 0 4.523-1.368 4.523-3.998 0-2.315-1.798-4.13-4.02-4.13-1.296 0-1.825.5-1.825 1.842z" fill="#fff"/><mask id="b" style="mask-type:luminance" maskUnits="userSpaceOnUse" x="15" y="12" width="5" height="5"><path d="M15.35 12.388h3.91v4.016h-3.91v-4.016z" fill="#fff"/></mask><g mask="url(#b)"><path d="M15.992 13.14l.041.12c.043.164.102.324.155.485l.031.076.008.037c.015.035.03.072.041.109l.08.037c.098.018.198.02.294.035.147.02.286.074.43.097.146.024.306.062.455.105.016.113.027.228.059.338.031.111.043.25.078.37s.051.233.073.35l.021.06c.016.096.037.191.055.286.093.044.183.094.27.148.267.162.533.323.81.463.105.058.214.11.332.138.117.027.245-.064.36-.115.235-.108.452-.249.68-.373.117-.072.23-.15.35-.216a.79.79 0 00.126-.095c.017-.126.042-.25.074-.374.05-.206.104-.412.139-.622l.012-.054c.02-.08.025-.16.047-.238l.005-.056c.095-.043.198-.056.3-.076.137-.033.276-.058.413-.095.188-.049.384-.065.574-.107.031-.142.088-.276.125-.418.069-.191.118-.385.179-.578.039-.084.039-.19.11-.255.138-.056.28-.11.414-.18v-.15c-.197.035-.401.033-.599.074-.198.04-.435.035-.648.077-.213.043-.407.026-.607.06-.11-.001-.217.028-.327.026l-.022.016-.162.007c-.082.018-.166.018-.247.037-.08.02-.198.01-.296.027-.223.018-.45.026-.671.063-.084.004-.167.007-.249.017-.321-.01-.64-.062-.96-.076-.13-.017-.266-.013-.393-.048-.36-.016-.715-.094-1.077-.105-.125-.018-.25-.022-.374-.053-.174-.011-.347-.037-.52-.046a3.039 3.039 0 00-.594-.055l-.026.093c.175.107.368.175.543.28.017.12.059.236.088.354z" fill="#fff"/></g><mask id="c" style="mask-type:luminance" maskUnits="userSpaceOnUse" x="11" y="13" width="9" height="18"><path d="M11.328 13.891h7.932v16.437h-7.932V13.891z" fill="#fff"/></mask><g mask="url(#c)"><path d="M26.744 22.828c-.152-.127-.256-.302-.41-.426a12.382 12.382 0 00-.51-.506c-.137-.146-.284-.286-.421-.432.027-.074.084-.132.12-.202.084-.158.197-.3.28-.457.082-.158.178-.257.246-.397.069-.14.16-.28.259-.408.107-.16.205-.325.311-.486.094-.125.163-.265.26-.387.098-.123.204-.302.314-.446l-.006-.031c-.13-.052-.241-.14-.372-.189-.257-.14-.527-.252-.79-.383-.3-.15-.614-.27-.906-.436-.123-.056-.247-.112-.376-.16 0 .287.047.573.037.86-.052-.058-.1-.12-.145-.184-.098-.152-.235-.274-.338-.422-.104-.148-.237-.298-.335-.461a6.091 6.091 0 01-.392-.546c-.117-.162-.245-.317-.356-.483-.102-.128-.212-.245-.302-.38l.059-.028.05-.004.02-.014c.055-.009.108-.021.161-.037.112-.027.225-.04.333-.078.172-.033.343-.083.517-.108.174-.026.311-.076.468-.107l.053-.01c.073-.02.148-.034.223-.04.01.252.059.503.063.758.031.31.06.62.08.931.031.058.06.123.12.156.058.033.146.037.219.06.072.023.194.047.278.101l.088.004c.04-.031.083-.059.127-.084l.02-.058c-.024-.091-.032-.187-.05-.278-.042-.173-.042-.352-.083-.525a.753.753 0 01-.02-.171l-.016-.022c-.013-.216-.06-.428-.082-.644a2.683 2.683 0 00-.05-.334 6.233 6.233 0 00-.05-.383c-.017-.08-.086-.127-.149-.171a4.869 4.869 0 01-.528-.506c-.128-.115-.24-.243-.363-.362l-.117.022c-.215.058-.44.066-.65.144l-.05.007c-.299.092-.606.158-.908.245-.168.049-.338.094-.509.135l-.039.013c-.09.024-.182.041-.272.059-.137.052-.29.044-.423.11l-.006.065c-.031.184-.059.37-.106.55-.008.091-.03.183-.031.274l.055.012c.176.134.33.296.495.443.13.105.239.23.364.339.126.109.212.18.312.276.14.126.276.259.427.373.15.115.3.22.425.358.066.068.097.158.158.23.06.072.092.175.155.255.062.08.131.208.201.309.071.1.13.206.204.301.15.19.274.4.42.595.109.142.187.304.3.442.081.091.144.196.216.293-.09.107-.18.214-.274.317-.18.228-.372.448-.562.668-.19.25-.417.47-.601.725-.104.13-.215.25-.314.385-.097.134-.2.218-.287.337-.155.196-.323.383-.468.587-.067.109-.087.235-.137.35-.038.085-.055.177-.092.26-.06.176-.11.354-.18.526l-.006.036-.032.078c-.025.08-.047.16-.076.238l-.012.035c-.05.165-.12.324-.176.488-.057.163-.096.286-.143.43l-.024.056c-.033.117-.03.237-.054.356-.008.085-.006.173-.012.26l.004-.015c-.026.249-.022.502-.082.745-.087-.031-.155-.094-.232-.144a1.213 1.213 0 01-.188-.163 5.261 5.261 0 01-.9.441c-.186.093-.378.167-.566.255-.106.039-.202.105-.313.126-.077-.006-.143-.044-.212-.074-.168-.081-.349-.138-.511-.23-.345-.143-.705-.271-1.005-.5-.13.085-.27.162-.391.26a6.468 6.468 0 00-.14-.107c-.023-.378-.035-.755-.082-1.128l-.015-.018v-.058c-.063-.152-.098-.315-.16-.467l-.042-.097c-.059-.195-.13-.387-.196-.58l-.039-.1c-.033-.092-.059-.186-.098-.275l-.037-.136-.027-.033a1.088 1.088 0 00-.077-.216 9.43 9.43 0 00-.15-.451.955.955 0 00-.2-.312c-.116-.132-.214-.28-.331-.412a20.96 20.96 0 01-.652-.791c-.347-.426-.71-.837-1.062-1.259-.11-.13-.227-.255-.327-.39.124-.178.27-.337.378-.524.098-.144.206-.282.298-.43.11-.19.264-.348.376-.536.084-.119.156-.243.247-.358.09-.115.166-.276.25-.413.122-.206.327-.336.505-.488.167-.118.298-.276.459-.4.219-.204.44-.405.656-.613.188-.165.364-.342.562-.494-.018-.091-.03-.185-.045-.276-.053-.195-.065-.397-.116-.593-.108-.033-.221-.047-.33-.065a4.181 4.181 0 01-.402-.095c-.182-.05-.366-.093-.549-.146l-.049-.021c-.058-.018-.119-.031-.178-.047-.121-.044-.248-.062-.37-.099-.121-.037-.264-.064-.391-.11a4.568 4.568 0 00-.492-.102l-.078-.021a.963.963 0 00-.098-.024c-.127.094-.231.216-.345.327-.158.154-.305.32-.474.465-.066.054-.12.126-.191.177-.03.025-.073.047-.07.09-.001.097-.007.194-.007.29l-.016.024c-.002.105-.035.205-.043.308-.011.074-.013.148-.031.221a.948.948 0 01-.02.154c-.029.173-.047.35-.078.523a6.786 6.786 0 00-.07.444.834.834 0 00-.036.177c-.011.12-.04.24-.04.363l.128-.054c.15-.021.306-.024.447-.082l.043-.008.137-.04.05-.02c.015-.165.056-.327.066-.492.023-.24.064-.478.08-.72a12.9 12.9 0 01.053-.634c.06.02.123.037.186.055.223.047.446.095.671.138.226.043.502.125.756.165l.059.024c.073.018.148.03.223.039a2.087 2.087 0 01-.176.223c-.16.224-.329.44-.492.662-.162.221-.327.441-.473.674-.069.098-.153.185-.222.282-.087.12-.18.236-.282.345-.096.107-.168.231-.272.332 0-.167.03-.332.053-.498a3.29 3.29 0 01.045-.387c-.182.082-.376.142-.548.243-.173.102-.376.173-.566.257-.19.084-.392.2-.595.286-.272.115-.527.262-.795.383.058.076.107.16.16.24.098.14.192.281.284.423.047.072.11.134.15.21.138.26.326.49.473.745.147.255.29.48.448.716.079.134.182.253.255.39.013.034.05.067.03.104-.062.105-.158.18-.244.264-.172.174-.35.343-.524.514a3.45 3.45 0 01-.216.231c-.076.074-.16.19-.254.273-.094.081-.206.221-.33.309l-.005.056c.09.016.178.04.268.056.09.018.237.05.354.082l.06.022c.091.02.181.044.273.07.092.025.2.03.294.064.212.064.43.101.646.154l.077.02c.086.015.172.034.256.06.062.016.125.028.188.034-.174.288-.266.615-.43.908-.026.045-.07.096-.036.148.094.175.176.358.257.54.184.275.352.561.526.841.182.241.314.514.492.759.06.114.121.227.184.34.008-.25.002-.5.01-.75.015-.121.011-.244.021-.366.018-.088.004-.176.026-.263.015-.323.033-.644.056-.967.007-.037 0-.08.03-.106.102-.127.233-.224.347-.339.113-.115.209-.179.303-.282.094-.103.174-.15.259-.227-.004.066-.002.134-.02.198a2.446 2.446 0 00-.031.247c-.04.107-.046.222-.067.332l-.024.08-.003.058-.016.024c-.012.128-.035.257-.053.383l-.024.078c-.019.103-.035.208-.058.311-.024.103-.043.268-.07.4-.021.074-.037.147-.05.222-.02.177-.074.349-.107.524l-.022.058c-.02.078-.037.155-.055.235l-.023.059c-.01.058-.03.116-.032.174.03.111.096.207.15.306.052.1.127.227.181.346.065.095.12.195.167.3.094.143.157.305.256.443.1.138.16.296.243.442.034.07.072.138.114.204l.012.035c.09.132.156.28.24.416.008-.055.018-.109.03-.162l.023-.075.018-.078.017-.062.014-.014c.016-.107.038-.213.067-.317.033-.113.043-.231.086-.342l.05-.193c.267.222.545.432.825.634.079.059.14.136.22.19.08.055.193.156.3.223.084.052.161.114.232.184.124.117.274.204.402.32.09.07.172.15.26.223.065-.055.125-.115.192-.167.19-.142.364-.302.554-.444.135-.122.294-.214.429-.334.135-.12.317-.257.484-.376.194-.151.39-.301.593-.44.02.079.037.154.059.232l.023.059c.016.083.028.169.05.252.048.117.054.245.08.37l.019.06c.02.084.035.17.053.255l.03-.01a.801.801 0 01.074-.15c.123-.165.2-.357.303-.534.104-.177.222-.401.341-.595.22-.419.46-.825.662-1.253a3.365 3.365 0 01-.067-.142 12.174 12.174 0 01-.152-.642c-.034-.136-.038-.276-.073-.412-.035-.136-.049-.313-.092-.465-.043-.152-.045-.256-.072-.385-.028-.128-.038-.276-.077-.41-.039-.134-.043-.315-.086-.47-.043-.157-.049-.275-.063-.413.1.09.198.18.304.26.111.123.247.22.364.337.1.087.188.189.292.27 0 .181.021.36.023.54.014.129.02.257.018.386l.018.021c0 .096-.004.193.011.286.03.4.03.801.034 1.202a.433.433 0 00.06-.085c.03-.115.096-.214.157-.314.106-.182.237-.352.339-.538.166-.23.305-.477.458-.714.055-.076.088-.165.145-.241.12-.158.166-.352.253-.527.02-.043.043-.088.03-.136-.01-.049-.062-.129-.087-.195-.026-.066-.073-.148-.1-.224-.043-.155-.143-.287-.194-.441l-.055-.115c.149-.033.298-.068.447-.099l.08-.021c.076-.02.154-.035.233-.05.115-.038.235-.055.354-.077l.06-.023c.091-.021.183-.037.273-.06l.057-.022c.1-.017.197-.04.294-.07.117-.033.237-.054.354-.085l.198-.04.086-.007c-.094-.109-.204-.197-.294-.302z" fill="#fff"/></g><mask id="d" style="mask-type:luminance" maskUnits="userSpaceOnUse" x="14" y="16" width="6" height="9"><path d="M14.227 16.528h5.033v7.942h-5.033v-7.942z" fill="#fff"/></mask><g mask="url(#d)"><path d="M22.581 21.375c.19-.154.368-.323.568-.467.065-.045.118-.103.176-.156.106-.095.228-.175.327-.278.1-.103.222-.18.33-.276.107-.095.195-.167.297-.245-.082-.119-.186-.222-.276-.334-.09-.113-.22-.24-.317-.368-.143-.195-.327-.36-.427-.583-.05-.12-.112-.232-.163-.35-.03-.065-.058-.133-.113-.18-.11-.099-.208-.21-.325-.299-.195-.178-.395-.35-.6-.515a3.636 3.636 0 00-.28-.244c-.148-.11-.285-.235-.426-.353-.069-.057-.145-.107-.21-.17l-.031-.005a9.511 9.511 0 01-1.14.534c-.231.08-.448.19-.672.288-.098-.002-.182-.058-.272-.087-.323-.166-.675-.265-.998-.43-.202-.1-.41-.189-.604-.307-.34.297-.699.571-1.037.87-.16.125-.31.263-.463.398-.117.083-.213.19-.323.282a.482.482 0 00-.146.217c-.026.07-.067.133-.096.2-.06.112-.094.236-.175.335-.184.232-.372.461-.572.681-.109.139-.228.269-.356.39l.008.026c.188.138.35.307.533.453.103.076.186.177.287.257.204.154.384.337.596.482.211.146.403.321.587.502.149.13.294.268.45.391-.027.197-.086.387-.115.583a2.902 2.902 0 00-.092.508c.137.115.317.158.472.245l.031.08.016.076c.047.146.049.303.096.449.021.091.043.185.08.272.037.088.043.129.063.193.094-.096.194-.189.282-.288-.004-.08.01-.183-.059-.241.196-.082.4-.144.593-.234.194-.09.4-.175.601-.258.165-.08.33-.158.502-.222.041-.017.088-.045.133-.017.143.064.29.124.433.192.254.113.509.22.765.329.147.064.294.144.457.157.025.111.02.226.066.33.047.106.069.19.155.246.078-.09.131-.198.174-.307.043-.11.051-.171.088-.251.022-.15.028-.302.047-.453.165-.121.37-.173.533-.3.002-.12-.031-.235-.047-.354-.05-.11-.057-.235-.084-.354-.02-.074-.05-.144-.073-.214-.008-.04-.039-.085-.03-.126.256-.237.51-.477.776-.7zm-.95-1.62c-.087.04-.174.087-.264.12-.09.033-.143-.006-.207.024-.1.093-.175.208-.257.315-.082.107-.17.216-.258.32a.776.776 0 00.031.137c.024.183.049.367.084.548.004.107.004.214.01.321l.024.062c.003.04.05.094.005.125-.135.011-.272-.002-.407.004-.182.182-.39.334-.572.519-.162.186-.34.355-.534.508-.079-.063-.169-.107-.241-.177-.108-.11-.216-.214-.313-.331-.185-.156-.343-.338-.539-.479a1.618 1.618 0 00-.358-.027l-.047-.06a5.83 5.83 0 01.002-.37 1.5 1.5 0 00.017-.215l.018-.018c.014-.21.065-.418.063-.63a.996.996 0 01-.298-.329c-.027-.046-.049-.095-.086-.134-.038-.039-.141-.072-.218-.093-.107-.031-.207-.078-.311-.117-.104-.039-.217-.101-.329-.142-.041-.014-.084-.027-.114-.058-.213-.214-.383-.465-.58-.695-.015-.02-.036-.044-.02-.072.064-.124.164-.221.262-.32.053-.059.14-.057.2-.107.11-.006.213.029.319.05l.129.04.059.018c.12.049.248.067.372.11l.139.046.058.02c.102.04.21.064.316.099l.043.006.039.04c.015.081.034.16.057.24.021.122.037.247.057.37.049.137.045.285.07.425.012.039.02.078.03.119.029.239.064.478.076.72-.008.07-.014.14-.028.21-.002.172-.05.342-.049.515.521-.002 1.04.008 1.561.002.292 0 .584-.004.875 0l-.039-.127c-.014-.043-.006-.048-.008-.074-.033-.161-.046-.324-.066-.488-.014-.124 0-.25.025-.371.026-.12.026-.274.057-.407.031-.165.054-.332.069-.5l.015-.021.006-.058c.033-.175.059-.354.098-.53l.022-.044c.115-.05.236-.078.358-.113l.037-.01.059-.021.078-.025c.255-.078.511-.15.768-.22.076-.027.155.002.233.004.184.072.362.222.378.432-.018.118-.1.212-.182.293-.12.129-.224.273-.357.387a.783.783 0 00-.088.105l-.049.016c-.113.002-.201.07-.3.113z" fill="#fff"/></g><path d="M17.114 18.938c-.059-.082-.168-.095-.253-.14a1.871 1.871 0 00-.42-.136c-.07.033-.14.062-.214.085.031.068.084.123.135.177l.235.292c.047.06.123.084.194.107.128.06.26.108.398.142a.243.243 0 00.19-.025c0-.037 0-.074-.003-.111-.068-.144-.174-.26-.262-.391z" fill="#fff"/><mask id="e" style="mask-type:luminance" maskUnits="userSpaceOnUse" x="17" y="24" width="3" height="3"><path d="M17.472 24.067h1.788v2.45h-1.788v-2.45z" fill="#fff"/></mask><g mask="url(#e)"><path d="M20.427 24.827c-.111-.084-.215-.175-.327-.26-.21-.159-.413-.332-.656-.442l-.058-.018-.077-.023c-.06.011-.12.027-.178.048l-.096.033c-.17.076-.313.195-.458.308-.079.081-.184.128-.267.204-.142.13-.307.235-.454.362-.07.06-.125.136-.194.2-.068.064-.096.117-.104.19-.01.068-.025.134-.046.199-.014.04-.024.084-.036.124l.094.074c.142.052.282.112.417.18.102.038.206.077.306.122.168.076.348.12.513.204l.031.008c.135.052.263.12.4.17.111.005.207-.06.307-.096.298-.137.61-.24.909-.372.143-.062.284-.128.43-.179.057-.024.111-.052.163-.085a2.767 2.767 0 00-.065-.383c-.1-.257-.354-.397-.554-.568z" fill="#fff"/></g></svg>