<svg width="69" height="26" viewBox="0 0 69 26" fill="none" xmlns="http://www.w3.org/2000/svg">
<mask id="mask0_3001_11049" style="mask-type:luminance" maskUnits="userSpaceOnUse" x="3" y="4" width="17" height="19">
<path d="M3.44141 4.17529H19.7944V22.5077H3.44141V4.17529Z" fill="white"/>
</mask>
<g mask="url(#mask0_3001_11049)">
<path d="M4.22894 8.44001C4.30836 9.49843 4.49473 11.3095 4.91312 13.11C5.20119 14.3514 5.59902 15.5893 6.14484 16.5633C6.95566 18.011 8.08927 19.1618 9.15698 20.0211C10.1274 20.8023 11.0434 21.3443 11.6196 21.6518C12.1931 21.3461 13.1065 20.8058 14.0769 20.0255C15.1437 19.1671 16.2791 18.0145 17.0926 16.5633C17.6358 15.5911 18.0336 14.3541 18.3208 13.1117C18.7382 11.3104 18.9255 9.49843 19.0049 8.44001C17.9631 7.96101 17.2246 7.32825 16.7046 6.67509C16.2283 6.07706 15.9321 5.4612 15.7502 4.93422H7.48725C7.27227 5.55623 6.89946 6.30185 6.25546 6.9959C5.75952 7.5327 5.09949 8.04007 4.22894 8.44001ZM4.17992 13.2771C3.71345 11.2642 3.52701 9.24958 3.45923 8.22761L3.44141 7.96015L3.69024 7.85617C4.57322 7.48909 5.22441 7.00213 5.70065 6.48761C6.34825 5.78911 6.68182 5.03548 6.8513 4.45428L6.93065 4.18237H16.3059L16.3862 4.45428C16.5334 4.95907 16.8045 5.59447 17.2933 6.20768C17.7847 6.82353 18.5027 7.42249 19.5436 7.85617L19.7925 7.96015L19.7746 8.22761C19.7069 9.24958 19.5196 11.2659 19.054 13.2788C18.7534 14.5807 18.3315 15.8853 17.7491 16.9277C16.8803 18.4784 15.6762 19.703 14.5479 20.6103C13.4258 21.5132 12.3697 22.1113 11.7918 22.4081L11.6187 22.4961L11.4475 22.4081C10.866 22.1095 9.80896 21.5097 8.68598 20.6059C7.55589 19.6968 6.35357 18.474 5.48841 16.9277C4.90413 15.8835 4.48137 14.578 4.17992 13.2771Z" fill="currentColor"/>
</g>
<path d="M11.3984 7.49728H12.8957C14.4712 7.4039 14.8769 7.38843 15.1109 7.38843H15.3605C18.4646 7.38843 20.087 8.24318 20.087 9.85958C20.087 10.6522 19.7126 11.2274 18.9795 11.6003C18.4804 11.8489 18.1216 12.0045 17.1076 12.2064C18.1216 12.3307 18.5583 12.4863 19.1356 12.7816C20.0714 13.2943 20.5864 14.1491 20.5864 15.1439C20.5864 15.7188 20.3834 16.294 20.0246 16.7136C19.3228 17.5374 18.3398 17.8637 16.4213 17.8637H11.3984V17.646C11.882 17.4441 12.0223 17.1954 12.0223 16.6202V8.74073C12.0223 8.16555 11.882 7.91692 11.3984 7.71497V7.49728ZM14.565 12.0199H15.2826C16.9515 12.0199 17.7939 11.305 17.7939 9.87505C17.7939 8.56973 16.9828 7.7926 15.6569 7.7926C14.8614 7.7926 14.565 8.04123 14.565 8.70951V12.0199ZM14.565 12.533V16.6048C14.565 17.2421 14.8769 17.4753 15.7037 17.4753C16.1249 17.4753 16.4679 17.4131 16.7488 17.3043C17.5133 16.9777 18.0592 16.0141 18.0592 14.9574C18.0592 13.3565 17.1387 12.533 15.3449 12.533H14.565Z" fill="currentColor"/>
<path d="M30.4897 18.5631V18.9049C27.4169 17.7393 25.9038 16.1229 25.1548 13.0769C25.0456 13.0923 24.9521 13.0923 24.9053 13.0923H24.7026C24.5154 13.0923 24.3593 13.0923 24.0629 13.0456V16.6202C24.0629 17.1954 24.2032 17.444 24.6868 17.6459V17.8636H20.8809V17.6459C21.3644 17.444 21.5047 17.1954 21.5047 16.6202V8.74066C21.5047 8.16548 21.3644 7.91685 20.8809 7.7149V7.49721H22.0817C22.3471 7.49721 22.8307 7.48174 23.4701 7.43505C24.219 7.38836 25.0769 7.35742 25.5915 7.35742C28.4775 7.35742 30.053 8.36743 30.053 10.217C30.053 11.0251 29.6942 11.7712 29.0234 12.2685C28.7428 12.4862 28.2434 12.7036 27.5417 12.9213C28.4151 15.7967 29.4915 17.9413 30.4897 18.5631ZM24.0629 8.88045V12.5638C24.2659 12.5793 24.4062 12.5951 24.5154 12.5951H24.8429C26.6056 12.5951 27.5103 11.7867 27.5103 10.2325C27.5103 8.86498 26.4497 7.79253 25.1393 7.79253C24.3748 7.79253 24.0629 8.08786 24.0629 8.88045Z" fill="currentColor"/>
<path d="M31.7985 14.5377L31.1433 16.6202C31.0964 16.729 31.0809 16.8533 31.0809 16.9622C31.0809 17.3197 31.3149 17.5216 31.9857 17.6617V17.8636H29.3027V17.6617C29.9111 17.4907 30.223 17.2263 30.457 16.6202L33.4833 7.40381H35.48L38.4438 16.6202C38.6465 17.1953 38.9274 17.5374 39.3017 17.6617V17.8636H35.4955V17.6617C35.8543 17.5374 35.9946 17.3818 35.9946 17.071C35.9946 16.9467 35.9635 16.7912 35.9011 16.6202L35.2304 14.5377H31.7985ZM32.0481 13.9158H35.0274L33.5301 9.33101L32.0481 13.9158Z" fill="currentColor"/>
<path d="M43.9178 17.8637H41.9369L38.8794 8.74077C38.6767 8.16559 38.4113 7.87027 38.0215 7.69926V7.49731H41.8122V7.69926C41.4999 7.82357 41.3441 8.0258 41.3441 8.28991C41.3441 8.42969 41.3752 8.56976 41.4376 8.74077L43.8712 16.1076L46.1954 8.74077C46.2267 8.63192 46.2423 8.52307 46.2423 8.41422C46.2423 8.0258 46.0238 7.83933 45.353 7.69926V7.49731H47.9581V7.69926C47.3966 7.87027 47.0688 8.16559 46.8661 8.74077L43.9178 17.8637Z" fill="currentColor"/>
<path d="M55.1337 7.49731L55.3053 9.48667H54.9465C54.463 8.36753 53.7767 7.88573 52.5442 7.88573H51.7018C50.9687 7.88573 50.6723 8.13437 50.6723 8.75624V11.8644H52.092C53.0902 11.8644 53.5893 11.5382 53.6985 10.7923H54.0263V13.4499H53.6985C53.6516 12.6573 53.1994 12.3153 52.092 12.3153H50.6723V16.4805C50.6723 17.2731 50.9532 17.4753 51.9982 17.4753H52.7627C54.2134 17.4753 55.04 16.9156 55.5394 15.5945L55.8668 15.7188L55.3053 17.8637H47.4902V17.646C47.9738 17.4441 48.1141 17.1955 48.1141 16.6203V8.74077C48.1141 8.16559 47.9738 7.91696 47.4902 7.71501V7.49731H55.1337Z" fill="currentColor"/>
<path d="M65.6303 18.5631V18.9049C62.5575 17.7393 61.0444 16.1229 60.2955 13.0769C60.1862 13.0923 60.0928 13.0923 60.0459 13.0923H59.8432C59.6561 13.0923 59.4999 13.0923 59.2035 13.0456V16.6202C59.2035 17.1954 59.3438 17.444 59.8274 17.6459V17.8636H56.0215V17.6459C56.5051 17.444 56.6454 17.1954 56.6454 16.6202V8.74066C56.6454 8.16548 56.5051 7.91685 56.0215 7.7149V7.49721H57.2224C57.4877 7.49721 57.9713 7.48174 58.6107 7.43505C59.3596 7.38836 60.2175 7.35742 60.7322 7.35742C63.6181 7.35742 65.1936 8.36743 65.1936 10.217C65.1936 11.0251 64.8348 11.7712 64.1641 12.2685C63.8835 12.4862 63.3841 12.7036 62.6823 12.9213C63.5557 15.7967 64.6321 17.9413 65.6303 18.5631ZM59.2035 8.88045V12.5638C59.4065 12.5793 59.5468 12.5951 59.6561 12.5951H59.9835C61.7462 12.5951 62.6509 11.7867 62.6509 10.2325C62.6509 8.86498 61.5904 7.79253 60.2799 7.79253C59.5155 7.79253 59.2035 8.08786 59.2035 8.88045Z" fill="currentColor"/>
<mask id="mask1_3001_11049" style="mask-type:luminance" maskUnits="userSpaceOnUse" x="9" y="7" width="3" height="3">
<path d="M9.05273 7.32031H11.3586V9.69322H9.05273V7.32031Z" fill="white"/>
</mask>
<g mask="url(#mask1_3001_11049)">
<path d="M9.43047 7.76475L9.4547 7.83486C9.48014 7.93254 9.51478 8.02678 9.54591 8.12216L9.56445 8.16699L9.56905 8.18883C9.57825 8.20946 9.58637 8.2313 9.59327 8.25314L9.64064 8.27498C9.69835 8.28536 9.75729 8.28651 9.81386 8.29568C9.90047 8.30721 9.98247 8.33936 10.0679 8.35311C10.1534 8.36693 10.2481 8.38992 10.3358 8.41519C10.3451 8.48186 10.352 8.54968 10.3705 8.61513C10.3889 8.68066 10.3959 8.76229 10.4167 8.83355C10.4374 8.9048 10.4467 8.9714 10.4594 9.04036L10.4721 9.07602C10.4814 9.13231 10.4941 9.1886 10.5044 9.24495C10.5593 9.27095 10.6124 9.30002 10.6638 9.33225C10.8209 9.42763 10.9779 9.52302 11.1419 9.6058C11.2031 9.64025 11.2678 9.67133 11.3371 9.68737C11.4064 9.70348 11.4814 9.64948 11.5496 9.61955C11.6881 9.55524 11.8163 9.47246 11.9503 9.39892C12.0196 9.35638 12.0865 9.31048 12.157 9.27138C12.1835 9.25505 12.2082 9.23629 12.2309 9.21509C12.2414 9.14069 12.256 9.06714 12.2748 8.99439C12.3048 8.87258 12.336 8.75076 12.3568 8.62666L12.3637 8.59451C12.3753 8.54739 12.3787 8.50027 12.3914 8.45429L12.3949 8.42092C12.4503 8.39565 12.5115 8.38762 12.5716 8.3761C12.6524 8.35662 12.7344 8.34165 12.8153 8.31981C12.9261 8.29109 13.0416 8.28185 13.1536 8.25658C13.1721 8.17272 13.2056 8.09345 13.2275 8.00952C13.268 7.89687 13.2968 7.78201 13.3326 7.66822C13.3557 7.61881 13.3557 7.55557 13.3973 7.51762C13.4793 7.48432 13.5624 7.45217 13.6421 7.41078V7.32227C13.5255 7.34296 13.4054 7.34182 13.2887 7.36595C13.1721 7.39008 13.0323 7.38664 12.9065 7.41192C12.7806 7.4372 12.6663 7.42689 12.5485 7.44759C12.4838 7.44637 12.4203 7.46363 12.3556 7.46248L12.3429 7.47172L12.247 7.4763C12.1986 7.48661 12.1489 7.48661 12.1016 7.49814C12.0542 7.5096 11.9849 7.50387 11.9272 7.51418C11.7955 7.52457 11.6615 7.52915 11.5311 7.55099C11.4814 7.55328 11.4329 7.55557 11.3844 7.5613C11.195 7.55557 11.0068 7.52457 10.8185 7.51648C10.7412 7.50616 10.6615 7.50845 10.5864 7.48776C10.374 7.47859 10.1649 7.43262 9.95128 7.42574C9.87739 7.41536 9.80343 7.41307 9.7307 7.39466C9.62792 7.38779 9.52628 7.37282 9.4235 7.36709C9.30807 7.34296 9.19027 7.33609 9.07362 7.33494L9.05859 7.39008C9.16137 7.45331 9.27573 7.49349 9.37851 7.55557C9.38886 7.62568 9.41315 7.69464 9.43047 7.76475Z" fill="currentColor"/>
</g>
<mask id="mask2_3001_11049" style="mask-type:luminance" maskUnits="userSpaceOnUse" x="6" y="8" width="6" height="10">
<path d="M6.67969 8.20825H11.3579V17.921H6.67969V8.20825Z" fill="white"/>
</mask>
<g mask="url(#mask2_3001_11049)">
<path d="M15.7716 13.4889C15.6815 13.4142 15.6204 13.3108 15.5291 13.2372C15.4321 13.135 15.3316 13.035 15.2289 12.9385C15.148 12.8523 15.0614 12.7695 14.9805 12.6833C14.9967 12.6396 15.0302 12.6052 15.051 12.5638C15.1006 12.4707 15.1676 12.3868 15.2161 12.2938C15.2647 12.2007 15.3212 12.142 15.3617 12.0593C15.4021 11.9765 15.4563 11.8938 15.5141 11.818C15.5776 11.7237 15.6353 11.6261 15.6977 11.5307C15.7531 11.4571 15.7936 11.3743 15.8513 11.3019C15.909 11.2295 15.9714 11.1238 16.0361 11.0388L16.0326 11.0204C15.9564 10.9894 15.8905 10.9377 15.8132 10.9089C15.6619 10.8262 15.5026 10.7595 15.3478 10.6825C15.1699 10.594 14.9852 10.5227 14.8131 10.4251C14.7403 10.3918 14.6676 10.3584 14.5914 10.3297C14.5914 10.4998 14.6191 10.6687 14.6133 10.8388C14.5823 10.8043 14.5539 10.7679 14.5279 10.7296C14.4701 10.64 14.3893 10.5676 14.3281 10.4803C14.2669 10.3929 14.1883 10.3044 14.1306 10.2079C14.0477 10.1045 13.9707 9.99683 13.8997 9.88497C13.8304 9.78959 13.7553 9.69764 13.6894 9.59996C13.6294 9.52405 13.5647 9.45516 13.5116 9.37582L13.5463 9.35863L13.5763 9.35627L13.5878 9.34825C13.6199 9.34302 13.6514 9.33571 13.6825 9.32641C13.7484 9.31036 13.8154 9.30227 13.8788 9.28043C13.9805 9.26088 14.0809 9.23102 14.1837 9.21612C14.2865 9.20116 14.3674 9.1713 14.4597 9.15289L14.4909 9.14716C14.5341 9.13549 14.578 9.1274 14.6226 9.12303C14.6283 9.27241 14.6572 9.42065 14.6595 9.57117C14.678 9.75507 14.6953 9.93782 14.7069 10.1217C14.7254 10.1562 14.7427 10.1941 14.7773 10.2136C14.812 10.2331 14.8639 10.2354 14.9066 10.2493C14.9494 10.263 15.021 10.2768 15.0707 10.309L15.1226 10.3113C15.1464 10.293 15.1714 10.2765 15.1977 10.2619L15.2092 10.2274C15.1954 10.1734 15.1908 10.1171 15.1803 10.0631C15.155 9.96081 15.155 9.85504 15.1307 9.75278C15.123 9.71948 15.1191 9.68582 15.1191 9.65166L15.1099 9.63899C15.1018 9.51145 15.0741 9.3862 15.0614 9.25859C15.0555 9.19213 15.0455 9.12625 15.0313 9.06094C15.0233 8.98511 15.0152 8.90927 15.0025 8.83458C14.9921 8.78746 14.9517 8.75982 14.9148 8.73339C14.8033 8.64159 14.6994 8.54205 14.6029 8.43463C14.5279 8.36682 14.462 8.29098 14.3893 8.22087L14.32 8.23348C14.193 8.26799 14.0602 8.27258 13.9366 8.31855L13.9077 8.32313C13.7311 8.37713 13.5497 8.41623 13.3719 8.46793C13.2726 8.49665 13.1721 8.52314 13.0716 8.54728L13.0485 8.5553C12.9954 8.56905 12.9412 8.57943 12.888 8.58974C12.8072 8.62082 12.7171 8.61617 12.6386 8.65527L12.6351 8.69322C12.6166 8.80235 12.6005 8.91156 12.5727 9.01841C12.5681 9.07247 12.5554 9.12647 12.5542 9.18046L12.5866 9.18734C12.6905 9.26668 12.7818 9.36207 12.8788 9.44936C12.955 9.51145 13.0196 9.58499 13.0936 9.64937C13.1675 9.71368 13.2183 9.75622 13.2772 9.81257C13.3603 9.88726 13.44 9.96539 13.5289 10.0332C13.6179 10.101 13.7056 10.163 13.7796 10.2447C13.8188 10.2848 13.8373 10.3378 13.8731 10.3802C13.9089 10.4228 13.9273 10.4837 13.9643 10.5308C14.0012 10.578 14.0417 10.6538 14.0832 10.7135C14.1249 10.7733 14.1595 10.8353 14.2033 10.8917C14.2923 11.0043 14.3651 11.1284 14.4505 11.2434C14.5151 11.3272 14.5614 11.4226 14.6283 11.5042C14.6757 11.5582 14.7127 11.6203 14.7553 11.6778C14.7022 11.7409 14.6491 11.8042 14.5937 11.8651C14.4875 11.9995 14.3743 12.1294 14.2623 12.2592C14.1502 12.4075 14.0163 12.5374 13.9077 12.6879C13.8466 12.7649 13.7807 12.8361 13.7229 12.9155C13.6652 12.9948 13.6051 13.0442 13.5532 13.1143C13.462 13.2304 13.3626 13.3406 13.2772 13.4613C13.2379 13.5257 13.2264 13.6004 13.1964 13.6682C13.1744 13.7187 13.164 13.7727 13.1421 13.8222C13.1075 13.9256 13.0774 14.0313 13.0358 14.1325L13.0324 14.1543L13.0139 14.2003C12.9989 14.2474 12.9861 14.2945 12.9688 14.3405L12.9619 14.3612C12.9319 14.4588 12.8915 14.5531 12.858 14.6496C12.8245 14.7462 12.8014 14.8186 12.7737 14.9036L12.7598 14.9369C12.7402 15.0059 12.7413 15.0771 12.7275 15.1472C12.7229 15.1978 12.724 15.2495 12.7206 15.3012L12.7229 15.292C12.7078 15.4391 12.7101 15.5886 12.6744 15.7322C12.6235 15.7138 12.5831 15.677 12.5381 15.6472C12.4978 15.6188 12.4609 15.5866 12.4272 15.5506C12.2586 15.6545 12.0815 15.7414 11.896 15.8115C11.7863 15.8667 11.6731 15.9103 11.5623 15.962C11.4999 15.985 11.4433 16.0241 11.3775 16.0367C11.3324 16.0333 11.2932 16.0103 11.2528 15.993C11.1535 15.9448 11.0472 15.9115 10.9514 15.8575C10.7481 15.7724 10.5356 15.6966 10.359 15.5621C10.2816 15.6115 10.1996 15.6575 10.128 15.715C10.1003 15.6931 10.0737 15.6724 10.046 15.6517C10.0322 15.4288 10.0252 15.2058 9.99751 14.9852L9.98824 14.9749V14.9404C9.95129 14.8508 9.93052 14.7542 9.89358 14.6646L9.86928 14.6071C9.83464 14.4922 9.7931 14.3784 9.75385 14.2646L9.73071 14.2049C9.71109 14.1508 9.69607 14.0957 9.67299 14.0429C9.66487 14.0164 9.65797 13.9888 9.65107 13.9624L9.6349 13.9429C9.62433 13.8988 9.60931 13.8562 9.58983 13.8153C9.56324 13.7256 9.53212 13.6372 9.50093 13.5487C9.47663 13.4786 9.43164 13.42 9.38312 13.3648C9.31498 13.2866 9.25727 13.1993 9.18798 13.1212C9.05516 12.9683 8.92815 12.812 8.80338 12.6535C8.59897 12.4017 8.38535 12.1593 8.17749 11.9098C8.1128 11.8329 8.04352 11.7593 7.98465 11.6789C8.05739 11.5743 8.144 11.48 8.20753 11.3698C8.26525 11.2847 8.32879 11.2031 8.38305 11.1158C8.44774 11.0031 8.53895 10.9101 8.60479 10.7986C8.65445 10.7285 8.69715 10.6549 8.75026 10.5871C8.80338 10.5193 8.84844 10.4239 8.89811 10.3435C8.9697 10.2217 9.09095 10.1446 9.19603 10.055C9.29421 9.98494 9.37155 9.89185 9.46628 9.8183C9.59558 9.69764 9.72611 9.57926 9.85311 9.45631C9.96402 9.35863 10.0679 9.25401 10.1846 9.16435C10.1742 9.11035 10.1673 9.05521 10.158 9.00122C10.1268 8.88628 10.1199 8.76676 10.0899 8.65068C10.0263 8.63113 9.95942 8.62311 9.89473 8.61273C9.83004 8.60242 9.73653 8.57828 9.65797 8.55644C9.55059 8.52658 9.44199 8.5013 9.33461 8.47022L9.30571 8.45762C9.27107 8.44724 9.23528 8.43921 9.20063 8.43005C9.12904 8.40362 9.05401 8.39324 8.98242 8.3714C8.91083 8.34956 8.82652 8.33352 8.75141 8.30587C8.65589 8.28067 8.55929 8.26076 8.46154 8.24615L8.4154 8.23348C8.39635 8.22789 8.37716 8.22331 8.35761 8.21973C8.28257 8.27487 8.22133 8.34727 8.15442 8.41279C8.06084 8.50359 7.97423 8.60127 7.8749 8.68742C7.83565 8.71964 7.80446 8.76218 7.76177 8.79204C7.74444 8.80694 7.719 8.81961 7.7213 8.84489C7.72015 8.90232 7.7167 8.95983 7.7167 9.01611L7.7075 9.03108C7.70628 9.0931 7.68666 9.15175 7.68206 9.21262C7.67516 9.2563 7.67401 9.29998 7.66358 9.34366C7.66222 9.37424 7.65834 9.40446 7.65201 9.43447C7.63469 9.53673 7.62434 9.64128 7.60587 9.74361C7.5874 9.84587 7.57468 9.91713 7.56425 10.0056C7.55354 10.0397 7.54664 10.0746 7.54348 10.1102C7.53658 10.1814 7.51926 10.2527 7.51926 10.3251L7.59545 10.2929C7.68321 10.2803 7.77564 10.2791 7.85873 10.2447L7.88417 10.24L7.96503 10.2159L7.995 10.2044C8.00312 10.1068 8.02734 10.0114 8.03309 9.91369C8.04697 9.77233 8.07126 9.63097 8.08046 9.48846C8.08973 9.34596 8.09778 9.23797 8.11165 9.11379C8.14745 9.12532 8.18439 9.13563 8.22133 9.14602C8.35301 9.17359 8.48468 9.2023 8.61744 9.22758C8.75026 9.25286 8.91313 9.30113 9.06321 9.32526L9.09785 9.33908C9.14119 9.34975 9.18511 9.35741 9.22953 9.36207C9.1979 9.40847 9.16326 9.45251 9.12559 9.49419C9.03086 9.62638 8.9316 9.75392 8.83572 9.88497C8.73991 10.0159 8.64288 10.1459 8.55627 10.2837C8.51588 10.3412 8.46621 10.3929 8.42575 10.4503C8.3745 10.5215 8.31901 10.5893 8.2595 10.6538C8.20286 10.717 8.16017 10.7906 8.09893 10.8503C8.09893 10.7515 8.11625 10.6538 8.13013 10.5561C8.13451 10.4793 8.14335 10.4031 8.15672 10.3274C8.04927 10.3757 7.93498 10.4113 7.83335 10.471C7.73172 10.5308 7.61162 10.5733 7.49957 10.6228C7.38758 10.6722 7.26863 10.7411 7.14853 10.7917C6.98803 10.8595 6.83788 10.9468 6.67969 11.0181C6.71433 11.0629 6.74315 11.1123 6.77435 11.1594C6.83213 11.2421 6.88755 11.3261 6.94182 11.4099C6.96956 11.4525 7.0065 11.4893 7.03073 11.5341C7.11158 11.6881 7.22242 11.8237 7.30902 11.9742C7.39563 12.1248 7.47994 12.2581 7.57353 12.3972C7.61967 12.4764 7.68091 12.5465 7.7236 12.6282C7.73172 12.6477 7.75364 12.6672 7.74092 12.689C7.70513 12.7511 7.64856 12.796 7.59775 12.8454C7.49612 12.9476 7.39103 13.0476 7.28825 13.1487C7.24786 13.1958 7.20624 13.2418 7.16125 13.2855C7.11618 13.3292 7.06652 13.3981 7.0111 13.4464C6.95569 13.4947 6.88985 13.5774 6.81711 13.6291L6.81366 13.6625C6.86678 13.6716 6.91874 13.6854 6.97186 13.6958C7.02498 13.7061 7.11158 13.7245 7.18087 13.744L7.21552 13.7567C7.26978 13.7682 7.3229 13.7831 7.37716 13.7981C7.43143 13.813 7.49497 13.8164 7.55038 13.836C7.67516 13.8739 7.80446 13.8958 7.93153 13.9268L7.97653 13.9394C8.0277 13.9477 8.07816 13.9591 8.12783 13.9739C8.16419 13.9838 8.20114 13.9907 8.23866 13.9946C8.13587 14.1647 8.08161 14.3577 7.98465 14.5312C7.96963 14.5577 7.94418 14.5876 7.96381 14.6186C8.01929 14.722 8.06774 14.8301 8.1151 14.9381C8.22371 15.1001 8.32297 15.2691 8.42575 15.4345C8.5332 15.5771 8.61054 15.738 8.71562 15.8828C8.75105 15.9502 8.78721 16.0172 8.82415 16.0838C8.82882 15.9356 8.82537 15.7885 8.82997 15.6403C8.83917 15.569 8.83687 15.4966 8.84269 15.4242C8.85304 15.3725 8.84499 15.3208 8.85764 15.2691C8.86692 15.0783 8.87734 14.8887 8.89114 14.6979C8.89466 14.676 8.89114 14.6508 8.90846 14.6347C8.96855 14.56 9.04588 14.5025 9.11287 14.4347C9.17986 14.3669 9.23643 14.329 9.29191 14.2681C9.34733 14.2072 9.39469 14.1796 9.44436 14.1337C9.44199 14.1727 9.44314 14.2129 9.43279 14.2508C9.42416 14.2992 9.41798 14.3479 9.41432 14.3968C9.39117 14.46 9.38772 14.5278 9.375 14.5933C9.3704 14.6094 9.3658 14.6243 9.3612 14.6405L9.3589 14.6749L9.34963 14.6887C9.34273 14.7646 9.32886 14.8404 9.31843 14.9151L9.30456 14.9611C9.29306 15.022 9.28379 15.084 9.26992 15.145C9.25612 15.2058 9.24455 15.3036 9.22837 15.3817C9.2163 15.4248 9.20667 15.4685 9.19948 15.5127C9.18798 15.6173 9.15564 15.7184 9.13602 15.8218L9.12329 15.8563C9.11172 15.9023 9.10137 15.9483 9.09095 15.9954L9.07708 16.0299C9.07133 16.0643 9.05976 16.0988 9.05861 16.1333C9.07593 16.1988 9.11517 16.2551 9.14637 16.3137C9.17756 16.3723 9.22148 16.4482 9.25375 16.5182C9.29163 16.5745 9.32433 16.6335 9.35193 16.6953C9.40734 16.7803 9.44436 16.8757 9.50323 16.9573C9.56209 17.0389 9.59788 17.1319 9.6464 17.2182C9.66645 17.2596 9.68873 17.2999 9.71339 17.3388L9.72036 17.3595C9.77348 17.4377 9.81272 17.525 9.86238 17.6054C9.86698 17.5733 9.87273 17.5411 9.87971 17.5101L9.89358 17.4652C9.89703 17.4503 9.90048 17.4342 9.90393 17.4193L9.91435 17.3825L9.9224 17.3744C9.93189 17.3113 9.94497 17.2488 9.96172 17.1871C9.98134 17.1205 9.98709 17.0504 10.0125 16.9849L10.0425 16.8711C10.1996 17.0021 10.3636 17.1262 10.5287 17.2457C10.5749 17.2802 10.6107 17.3262 10.658 17.3584C10.7054 17.3905 10.7724 17.4503 10.8347 17.4894C10.8846 17.5207 10.9304 17.5571 10.9721 17.5986C11.0449 17.6675 11.1339 17.7192 11.2089 17.787C11.262 17.8284 11.3105 17.8766 11.3625 17.9192C11.4006 17.887 11.4364 17.8514 11.4757 17.8203C11.5877 17.7364 11.6905 17.6422 11.8025 17.5583C11.8821 17.4859 11.9757 17.4319 12.0554 17.3607C12.1351 17.2894 12.2425 17.2089 12.3406 17.1388C12.455 17.0492 12.5704 16.9607 12.6905 16.8792C12.7021 16.9251 12.7125 16.9699 12.7252 17.0159L12.739 17.0504C12.7483 17.0998 12.7552 17.1504 12.7679 17.1998C12.7968 17.2687 12.8003 17.3446 12.8153 17.4181L12.8268 17.4538C12.8384 17.5032 12.8476 17.5537 12.858 17.6043L12.8753 17.5986C12.8869 17.5676 12.9015 17.5381 12.9192 17.5101C12.992 17.4124 13.037 17.2986 13.0982 17.194C13.1594 17.0894 13.2287 16.9573 13.2992 16.8424C13.4285 16.5953 13.5705 16.3551 13.6894 16.1023C13.6756 16.0747 13.6629 16.0471 13.6502 16.0184C13.6167 15.8931 13.5867 15.7655 13.5601 15.6391C13.5405 15.5587 13.5382 15.4759 13.5174 15.3954C13.4966 15.315 13.4886 15.2105 13.4631 15.1208C13.4377 15.0312 13.4366 14.9691 13.4204 14.8932C13.4042 14.8174 13.3984 14.7301 13.3753 14.6508C13.3523 14.5715 13.35 14.4646 13.3245 14.3727C13.2992 14.2808 13.2956 14.2106 13.2876 14.129C13.3465 14.1819 13.4042 14.2359 13.4666 14.283C13.5324 14.3554 13.6121 14.4129 13.6814 14.4818C13.7403 14.5335 13.7922 14.5933 13.8535 14.6416C13.8535 14.7484 13.8662 14.8542 13.8673 14.9611C13.8757 15.0367 13.8791 15.1126 13.8777 15.1886L13.8881 15.2012C13.8881 15.2576 13.8858 15.315 13.895 15.3702C13.9123 15.6069 13.9123 15.8437 13.9146 16.0804C13.9286 16.065 13.9406 16.0482 13.9505 16.0299C13.9678 15.962 14.0071 15.9035 14.0429 15.8448C14.1052 15.7368 14.1826 15.6369 14.2426 15.5265C14.3408 15.3909 14.4228 15.2449 14.5128 15.1047C14.5452 15.0599 14.5648 15.007 14.5983 14.9622C14.6687 14.8691 14.6965 14.7542 14.7473 14.6508C14.7589 14.6255 14.7727 14.5991 14.7658 14.5703C14.7589 14.5416 14.7288 14.4945 14.7138 14.4554C14.6988 14.4163 14.671 14.368 14.6549 14.3233C14.6295 14.2313 14.5706 14.1531 14.5406 14.0624L14.5082 13.9946C14.596 13.975 14.6838 13.9543 14.7715 13.9359L14.8189 13.9233C14.8639 13.9118 14.9101 13.9026 14.9563 13.8935C15.0244 13.8716 15.0949 13.8613 15.1653 13.8486L15.2 13.8348C15.2542 13.8222 15.3085 13.813 15.3617 13.7992L15.3952 13.7866C15.4538 13.7765 15.5115 13.7627 15.5684 13.7452C15.6377 13.7256 15.7081 13.713 15.7774 13.6946L15.8941 13.6716L15.9448 13.667C15.8894 13.6027 15.8247 13.551 15.7716 13.4889Z" fill="currentColor"/>
</g>
<mask id="mask3_3001_11049" style="mask-type:luminance" maskUnits="userSpaceOnUse" x="8" y="9" width="4" height="6">
<path d="M8.39062 9.7666H11.3588V14.4597H8.39062V9.7666Z" fill="white"/>
</mask>
<g mask="url(#mask3_3001_11049)">
<path d="M13.3174 12.6306C13.4294 12.5398 13.5345 12.4398 13.6523 12.3547C13.6904 12.3283 13.7216 12.2939 13.7562 12.2628C13.8186 12.2065 13.8902 12.1594 13.949 12.0984C14.008 12.0376 14.0796 11.9916 14.1431 11.9352C14.2066 11.8789 14.2585 11.8364 14.3186 11.7904C14.2701 11.7203 14.2089 11.6594 14.1558 11.5928C14.1026 11.5261 14.0265 11.4514 13.9687 11.3756C13.8844 11.2606 13.7758 11.163 13.717 11.0308C13.6881 10.9607 13.6511 10.8941 13.6211 10.824C13.6038 10.786 13.5864 10.7458 13.5541 10.7183C13.4895 10.6596 13.4317 10.5941 13.3624 10.5412C13.2477 10.4363 13.1299 10.3348 13.0091 10.2367C12.9565 10.186 12.9014 10.1381 12.8439 10.093C12.7561 10.0276 12.6753 9.95396 12.5922 9.88392C12.5517 9.85055 12.5067 9.82069 12.4686 9.78388L12.4501 9.78044C12.2331 9.90061 12.0091 10.0059 11.778 10.0965C11.6417 10.1436 11.5136 10.2091 11.3819 10.2666C11.3242 10.2655 11.2745 10.2321 11.2214 10.2148C11.0309 10.1172 10.823 10.0586 10.6324 9.9609C10.5135 9.90225 10.3911 9.8494 10.2767 9.7793C10.0758 9.95517 9.86446 10.1172 9.66465 10.2942C9.56999 10.3677 9.48223 10.4493 9.3921 10.5286C9.32281 10.578 9.26625 10.6412 9.20156 10.6953C9.16081 10.7302 9.13191 10.7731 9.11495 10.824C9.09993 10.8654 9.07571 10.9021 9.05838 10.9423C9.02374 11.0079 9.00297 11.0814 8.9556 11.14C8.84707 11.2768 8.73617 11.4124 8.61837 11.5422C8.55389 11.6242 8.48382 11.7012 8.4082 11.7732L8.41288 11.7881C8.52371 11.8698 8.61959 11.9697 8.72697 12.056C8.78813 12.1007 8.83665 12.1605 8.89674 12.2076C9.01684 12.2984 9.12307 12.4064 9.24778 12.4926C9.37248 12.5788 9.48568 12.6823 9.59421 12.7891C9.68197 12.8661 9.76743 12.9477 9.85986 13.0201C9.84369 13.1362 9.80905 13.2489 9.79173 13.3649C9.76477 13.4633 9.74666 13.5633 9.73746 13.6648C9.81825 13.7327 9.92448 13.7579 10.0158 13.8096L10.0342 13.8568L10.0434 13.9016C10.0712 13.9877 10.0723 14.0808 10.1001 14.1671C10.1127 14.221 10.1254 14.2763 10.1474 14.328C10.1694 14.3797 10.1728 14.4038 10.1843 14.4417C10.2398 14.3854 10.2987 14.3303 10.3506 14.2716C10.3483 14.2245 10.3564 14.1636 10.316 14.1291C10.4315 14.0808 10.5516 14.0441 10.6659 13.9912C10.7802 13.9383 10.9015 13.8878 11.0204 13.8384C11.1175 13.7912 11.2144 13.7453 11.3161 13.7074C11.3403 13.697 11.368 13.681 11.3946 13.697C11.4789 13.735 11.5655 13.7705 11.6498 13.8108C11.7999 13.8775 11.9501 13.9407 12.1014 14.005C12.188 14.043 12.2746 14.0901 12.3705 14.0981C12.3854 14.1636 12.382 14.2314 12.4097 14.2934C12.4374 14.3555 12.4501 14.4049 12.5009 14.4382C12.5471 14.3854 12.5783 14.321 12.6037 14.2567C12.6291 14.1923 12.6337 14.1556 12.6557 14.1085C12.6684 14.02 12.6718 13.9303 12.6834 13.8407C12.7804 13.7694 12.9016 13.7384 12.9975 13.6637C12.9986 13.5924 12.979 13.5246 12.9698 13.4545C12.9398 13.389 12.9363 13.3155 12.9202 13.2453C12.9086 13.2017 12.8913 13.1603 12.8774 13.119C12.8728 13.0948 12.8543 13.0684 12.8601 13.0443C13.0102 12.904 13.1604 12.7627 13.3174 12.6306ZM12.7573 11.6733C12.7053 11.6974 12.6545 11.725 12.6014 11.7445C12.5483 11.764 12.5171 11.741 12.479 11.7583C12.4201 11.8134 12.3762 11.8812 12.3277 11.9445C12.2792 12.0077 12.2272 12.072 12.1752 12.1341C12.179 12.1614 12.1852 12.1882 12.1937 12.2145C12.2076 12.3226 12.2226 12.4317 12.2434 12.5386C12.2457 12.6018 12.2457 12.665 12.2492 12.7282L12.263 12.765C12.2653 12.788 12.293 12.8202 12.2665 12.8385C12.1868 12.8455 12.106 12.8374 12.0263 12.8408C11.9189 12.9489 11.7965 13.0385 11.6891 13.1477C11.5935 13.2576 11.4884 13.3576 11.3738 13.4476C11.3276 13.4108 11.2745 13.3844 11.2317 13.343C11.1683 13.2787 11.1047 13.2166 11.047 13.1477C10.9384 13.0557 10.8449 12.9477 10.7294 12.8649C10.6595 12.8518 10.5891 12.8464 10.5181 12.8489L10.4904 12.8132C10.4892 12.7397 10.4881 12.6673 10.4915 12.5949C10.498 12.5527 10.5015 12.5101 10.5019 12.4674L10.5123 12.457C10.5204 12.3329 10.5504 12.2099 10.5493 12.0847C10.4761 12.033 10.4176 11.9683 10.3738 11.8905C10.3576 11.8628 10.3449 11.8341 10.323 11.8111C10.301 11.7881 10.2398 11.7687 10.1947 11.756C10.1312 11.7376 10.0723 11.71 10.0111 11.687C9.94992 11.664 9.88293 11.6273 9.8171 11.6032C9.79288 11.5951 9.76743 11.587 9.75011 11.5686C9.62426 11.4423 9.52378 11.294 9.40827 11.1584C9.39907 11.1469 9.38635 11.132 9.39562 11.1158C9.43372 11.0423 9.49258 10.9849 9.55037 10.9262C9.58149 10.8918 9.63346 10.8929 9.6681 10.8631C9.73279 10.8596 9.79403 10.8802 9.85634 10.8929L9.9326 10.9159L9.96724 10.9274C10.0377 10.9561 10.1139 10.9665 10.1867 10.9917L10.2686 11.0193L10.3033 11.0308C10.3633 11.055 10.4269 11.0687 10.4892 11.0894L10.5146 11.0929L10.5377 11.117C10.5464 11.1647 10.5576 11.2118 10.5712 11.2584C10.5839 11.3308 10.5931 11.4043 10.6047 11.4767C10.6336 11.5583 10.6312 11.6456 10.6462 11.7284C10.6532 11.7514 10.6578 11.7744 10.6636 11.7985C10.6809 11.9399 10.7017 12.0812 10.7086 12.2237C10.704 12.2651 10.7006 12.3065 10.6925 12.3478C10.6913 12.4501 10.6624 12.5501 10.6636 12.6524C10.9708 12.6512 11.2768 12.657 11.584 12.6536C11.7561 12.6536 11.9281 12.6512 12.1002 12.6536C12.0921 12.6283 12.0852 12.6041 12.0771 12.5788C12.069 12.5535 12.0736 12.5501 12.0725 12.5352C12.0528 12.4398 12.0448 12.3433 12.0332 12.2467C12.0252 12.1731 12.0332 12.0984 12.0482 12.0272C12.0633 11.9559 12.0633 11.8652 12.0817 11.787C12.1001 11.6892 12.1136 11.5908 12.1221 11.4917L12.1314 11.479L12.1349 11.4445C12.1545 11.3411 12.1695 11.2354 12.1926 11.132L12.2053 11.1055C12.2734 11.0756 12.345 11.0596 12.4166 11.0389L12.4386 11.0331L12.4732 11.0205L12.5194 11.0056C12.6695 10.9596 12.8208 10.9171 12.9721 10.8757C13.0171 10.8596 13.0633 10.8768 13.1095 10.878C13.2181 10.9205 13.3232 11.009 13.3324 11.1331C13.322 11.2032 13.2735 11.2584 13.225 11.3066C13.1545 11.3825 13.0934 11.4675 13.0148 11.5353C12.9957 11.5545 12.9784 11.5752 12.9629 11.5974L12.934 11.6066C12.867 11.6077 12.815 11.6479 12.7573 11.6733Z" fill="currentColor"/>
</g>
<path d="M10.0934 11.1905C10.0588 11.1423 9.99409 11.1343 9.94449 11.1078C9.86593 11.0687 9.78162 11.0469 9.69617 11.0273C9.65541 11.0473 9.61351 11.0642 9.57031 11.078C9.58878 11.1181 9.61998 11.1504 9.64995 11.1825C9.69617 11.24 9.74238 11.2975 9.78852 11.3549C9.81627 11.3906 9.86133 11.4043 9.90288 11.4181C9.9782 11.4539 10.0563 11.4819 10.1373 11.502C10.1562 11.5072 10.1754 11.5085 10.1948 11.5059C10.2143 11.5033 10.2324 11.497 10.2493 11.4871C10.2493 11.4652 10.2493 11.4434 10.2482 11.4216C10.2078 11.3365 10.1454 11.2676 10.0934 11.1905Z" fill="currentColor"/>
<mask id="mask4_3001_11049" style="mask-type:luminance" maskUnits="userSpaceOnUse" x="10" y="14" width="2" height="2">
<path d="M10.3047 14.2214H11.3593V15.6697H10.3047V14.2214Z" fill="white"/>
</mask>
<g mask="url(#mask4_3001_11049)">
<path d="M12.0469 14.6704C11.9811 14.621 11.9199 14.567 11.8541 14.5165C11.7305 14.4234 11.6104 14.321 11.4672 14.2556L11.4326 14.2452L11.3875 14.2314C11.3517 14.2382 11.3167 14.2478 11.2824 14.2602L11.2259 14.2797C11.1254 14.3245 11.0411 14.3946 10.9556 14.4612C10.9095 14.5095 10.8471 14.5371 10.7986 14.5819C10.7142 14.659 10.6173 14.721 10.5307 14.7957C10.4891 14.8313 10.4567 14.8762 10.4163 14.914C10.3759 14.952 10.3598 14.983 10.3551 15.0267C10.3493 15.0666 10.3401 15.1056 10.3274 15.1439C10.3193 15.168 10.3135 15.1933 10.3066 15.2175L10.3621 15.2611C10.4459 15.292 10.5279 15.3273 10.608 15.3668C10.6681 15.3898 10.7293 15.4128 10.7882 15.4392C10.8875 15.4841 10.9938 15.5105 11.0907 15.5599L11.1092 15.5646C11.1889 15.5956 11.2639 15.6357 11.3448 15.6657C11.4106 15.668 11.4672 15.63 11.5261 15.6082C11.7017 15.5278 11.8852 15.4668 12.062 15.3887C12.1463 15.3519 12.2294 15.3128 12.316 15.283C12.3495 15.2689 12.3814 15.252 12.4119 15.2324C12.4061 15.1554 12.3899 15.0807 12.3738 15.006C12.3148 14.8543 12.1648 14.7715 12.0469 14.6704Z" fill="currentColor"/>
</g>
</svg>
