<svg width="14" height="14" viewBox="0 0 14 14" fill="none" xmlns="http://www.w3.org/2000/svg">
<path fill-rule="evenodd" clip-rule="evenodd" d="M9.80886 10.5321C8.77081 11.4066 7.43032 11.9335 5.96677 11.9335C2.67142 11.9335 0 9.26213 0 5.96677C0 2.67142 2.67142 0 5.96677 0C9.26213 0 11.9335 2.67142 11.9335 5.96677C11.9335 7.43032 11.4066 8.77081 10.5321 9.80886L14 13.2767L13.2767 14L9.80886 10.5321ZM10.9107 5.96677C10.9107 8.69725 8.69725 10.9107 5.96677 10.9107C3.23633 10.9107 1.02287 8.69725 1.02287 5.96677C1.02287 3.23633 3.23633 1.02287 5.96677 1.02287C8.69725 1.02287 10.9107 3.23633 10.9107 5.96677Z" fill="currentColor"/>
</svg>
