<svg width="17" height="16" viewBox="0 0 17 16" fill="none" xmlns="http://www.w3.org/2000/svg">
<path fill-rule="evenodd" clip-rule="evenodd" d="M7.08061 1.58625C7.32877 1.15291 7.7528 0.57959 8.5001 0.57959C9.24741 0.57959 9.67144 1.15291 9.91959 1.58626C10.1796 2.04028 10.4401 2.69091 10.7452 3.45271L10.7986 3.58612C10.9881 4.0594 11.1091 4.35884 11.2244 4.57855C11.3312 4.78217 11.4028 4.85543 11.4612 4.89894C11.5195 4.9424 11.61 4.98978 11.8351 5.03356C12.0782 5.08084 12.3991 5.1106 12.9063 5.15609L13.1455 5.17755C13.8963 5.24485 14.5459 5.30307 15.0249 5.4163C15.4958 5.52759 16.1202 5.76289 16.3465 6.4369C16.5726 7.11039 16.2175 7.67502 15.9097 8.04844C15.5965 8.42849 15.1142 8.86793 14.5564 9.3761L14.1123 9.78075C13.8003 10.0651 13.6036 10.2453 13.4635 10.397C13.3333 10.5381 13.2913 10.6142 13.2694 10.6702C13.2557 10.7053 13.2443 10.7413 13.2353 10.7779C13.2209 10.8364 13.2115 10.923 13.2367 11.1135C13.2639 11.3185 13.321 11.5794 13.4123 11.9919L13.4777 12.2868C13.6315 12.9814 13.761 13.5655 13.8115 14.0142C13.8572 14.4191 13.8847 15.0162 13.4878 15.4588C13.2801 15.6904 13.0101 15.8573 12.71 15.9393C12.1356 16.0963 11.6141 15.8029 11.2733 15.5803C10.8956 15.3337 10.4324 14.9556 9.88187 14.5063L9.84506 14.4762C9.45131 14.1548 9.19807 13.9492 8.99047 13.8102C8.79463 13.679 8.69862 13.649 8.63557 13.6389C8.54582 13.6245 8.45438 13.6245 8.36464 13.6389C8.30158 13.649 8.20558 13.679 8.00973 13.8102C7.80214 13.9492 7.5489 14.1548 7.15515 14.4762L7.11831 14.5063C6.56778 14.9556 6.10459 15.3337 5.72689 15.5803C5.3861 15.8029 4.86463 16.0963 4.29024 15.9393C3.99008 15.8573 3.72006 15.6904 3.51242 15.4588C3.11548 15.0162 3.14305 14.4191 3.18868 14.0142C3.23923 13.5655 3.36866 12.9813 3.52254 12.2868L3.58787 11.9919C3.67924 11.5794 3.73633 11.3185 3.76347 11.1135C3.7887 10.923 3.7793 10.8364 3.76491 10.7779C3.7559 10.7413 3.7445 10.7053 3.73078 10.6702C3.70893 10.6142 3.66688 10.5381 3.5367 10.397C3.39664 10.2453 3.19993 10.0651 2.88787 9.78075L2.44382 9.37611C1.88607 8.86794 1.40375 8.42849 1.09047 8.04844C0.782656 7.67502 0.427559 7.11039 0.653709 6.4369C0.880033 5.76289 1.50444 5.52759 1.9753 5.4163C2.45434 5.30307 3.10387 5.24485 3.85475 5.17755C3.87522 5.17571 3.89576 5.17387 3.91638 5.17202L4.09393 5.15609C4.60108 5.1106 4.92203 5.08084 5.16512 5.03356C5.39025 4.98978 5.48066 4.9424 5.53902 4.89894C5.59745 4.85543 5.66896 4.78217 5.77582 4.57855C5.89112 4.35884 6.01208 4.0594 6.20162 3.58612L6.23188 3.51057C6.23963 3.49121 6.24735 3.47192 6.25505 3.45271C6.56009 2.69091 6.82061 2.04028 7.08061 1.58625Z" fill="currentColor"/>
</svg>
