<svg width="369" height="43" viewBox="0 0 369 43" fill="none" xmlns="http://www.w3.org/2000/svg">
<path d="M369 41.7757H362.599V37.6611H362.485C361.685 39.1469 360.485 40.347 358.885 41.2614C357.323 42.1377 355.723 42.5758 354.084 42.5758C350.198 42.5758 347.379 41.6234 345.626 39.7184C343.912 37.7754 343.055 34.8608 343.055 30.9747V12.23H349.57V30.3461C349.57 32.9368 350.065 34.7655 351.055 35.8323C352.046 36.8991 353.437 37.4325 355.227 37.4325C356.599 37.4325 357.742 37.2229 358.656 36.8038C359.571 36.3847 360.314 35.8323 360.885 35.1465C361.456 34.4226 361.857 33.5654 362.085 32.5748C362.352 31.5843 362.485 30.5175 362.485 29.3745V12.23H369V41.7757Z" fill="white" fill-opacity="0.1"/>
<path d="M322.963 12.2303H329.078V17.9451H329.192C329.383 17.145 329.745 16.364 330.278 15.602C330.85 14.84 331.516 14.1543 332.278 13.5447C333.078 12.897 333.955 12.3827 334.907 12.0017C335.86 11.6207 336.831 11.4302 337.822 11.4302C338.584 11.4302 339.098 11.4492 339.365 11.4873C339.669 11.5254 339.974 11.5635 340.279 11.6016V17.888C339.822 17.8118 339.346 17.7546 338.85 17.7165C338.393 17.6403 337.936 17.6022 337.479 17.6022C336.374 17.6022 335.326 17.8308 334.336 18.288C333.383 18.7071 332.545 19.3548 331.821 20.231C331.097 21.0692 330.526 22.1169 330.107 23.3742C329.687 24.6315 329.478 26.0792 329.478 27.7175V41.776H322.963V12.2303Z" fill="white" fill-opacity="0.1"/>
<path d="M307.572 34.0605H315.516V41.7756H307.572V34.0605Z" fill="white" fill-opacity="0.1"/>
<path d="M292.213 12.2303H298.328V17.9451H298.442C298.633 17.145 298.995 16.364 299.528 15.602C300.099 14.84 300.766 14.1543 301.528 13.5447C302.328 12.897 303.204 12.3827 304.157 12.0017C305.109 11.6207 306.081 11.4302 307.071 11.4302C307.833 11.4302 308.348 11.4492 308.615 11.4873C308.919 11.5254 309.224 11.5635 309.529 11.6016V17.888C309.072 17.8118 308.595 17.7546 308.1 17.7165C307.643 17.6403 307.186 17.6022 306.729 17.6022C305.624 17.6022 304.576 17.8308 303.585 18.288C302.633 18.7071 301.795 19.3548 301.071 20.231C300.347 21.0692 299.776 22.1169 299.356 23.3742C298.937 24.6315 298.728 26.0792 298.728 27.7175V41.776H292.213V12.2303Z" fill="white" fill-opacity="0.1"/>
<path d="M280.746 24.4029C280.67 23.3742 280.441 22.3836 280.06 21.4312C279.717 20.4787 279.222 19.6596 278.574 18.9738C277.965 18.2499 277.203 17.6784 276.288 17.2593C275.412 16.8021 274.421 16.5735 273.316 16.5735C272.173 16.5735 271.126 16.7831 270.173 17.2022C269.259 17.5832 268.459 18.1356 267.773 18.8595C267.125 19.5453 266.592 20.3644 266.173 21.3169C265.792 22.2693 265.582 23.298 265.544 24.4029H280.746ZM265.544 28.689C265.544 29.832 265.697 30.9369 266.001 32.0036C266.344 33.0704 266.84 34.0038 267.487 34.8039C268.135 35.604 268.954 36.2517 269.945 36.747C270.935 37.2041 272.116 37.4327 273.488 37.4327C275.393 37.4327 276.917 37.0327 278.06 36.2326C279.241 35.3944 280.117 34.1562 280.689 32.518H286.861C286.518 34.1181 285.927 35.5468 285.089 36.8041C284.251 38.0614 283.241 39.1281 282.06 40.0044C280.879 40.8426 279.546 41.4712 278.06 41.8903C276.612 42.3475 275.088 42.5761 273.488 42.5761C271.164 42.5761 269.106 42.1951 267.316 41.4331C265.525 40.6712 264.001 39.6044 262.744 38.2328C261.525 36.8613 260.591 35.223 259.944 33.3181C259.334 31.4131 259.029 29.3177 259.029 27.0317C259.029 24.9363 259.353 22.9551 260.001 21.0883C260.687 19.1833 261.639 17.526 262.858 16.1164C264.116 14.6686 265.62 13.5256 267.373 12.6874C269.126 11.8493 271.107 11.4302 273.316 11.4302C275.64 11.4302 277.717 11.9255 279.546 12.916C281.412 13.8685 282.955 15.1448 284.175 16.745C285.394 18.3451 286.27 20.1929 286.803 22.2884C287.375 24.3457 287.527 26.4793 287.261 28.689H265.544Z" fill="white" fill-opacity="0.1"/>
<path d="M227.908 12.23H234.994L242.481 34.9179H242.595L249.796 12.23H256.539L245.967 41.7757H238.652L227.908 12.23Z" fill="white" fill-opacity="0.1"/>
<path d="M223.812 35.2039C223.812 36.004 223.907 36.5755 224.098 36.9184C224.327 37.2613 224.746 37.4327 225.355 37.4327C225.546 37.4327 225.774 37.4327 226.041 37.4327C226.308 37.4327 226.613 37.3946 226.955 37.3184V41.8332C226.727 41.9094 226.422 41.9856 226.041 42.0618C225.698 42.1761 225.336 42.2713 224.955 42.3475C224.574 42.4237 224.193 42.4809 223.812 42.519C223.431 42.5571 223.107 42.5761 222.841 42.5761C221.507 42.5761 220.402 42.3094 219.526 41.776C218.65 41.2426 218.078 40.3092 217.812 38.9757C216.516 40.233 214.916 41.1474 213.011 41.7189C211.144 42.2904 209.335 42.5761 207.582 42.5761C206.249 42.5761 204.972 42.3856 203.753 42.0046C202.534 41.6617 201.448 41.1474 200.496 40.4616C199.581 39.7377 198.838 38.8424 198.267 37.7756C197.733 36.6708 197.467 35.3944 197.467 33.9467C197.467 32.1179 197.791 30.6321 198.438 29.4891C199.124 28.3461 200 27.4508 201.067 26.8031C202.172 26.1554 203.391 25.6982 204.725 25.4316C206.096 25.1268 207.468 24.8982 208.839 24.7458C210.02 24.5172 211.144 24.3648 212.211 24.2886C213.278 24.1743 214.211 24.0028 215.011 23.7743C215.85 23.5457 216.497 23.2028 216.954 22.7456C217.45 22.2503 217.697 21.5264 217.697 20.5739C217.697 19.7358 217.488 19.05 217.069 18.5166C216.688 17.9832 216.192 17.5832 215.583 17.3165C215.011 17.0117 214.364 16.8212 213.64 16.745C212.916 16.6307 212.23 16.5735 211.582 16.5735C209.754 16.5735 208.249 16.9545 207.068 17.7165C205.887 18.4785 205.22 19.6596 205.068 21.2597H198.553C198.667 19.3548 199.124 17.7737 199.924 16.5164C200.724 15.2591 201.734 14.2495 202.953 13.4875C204.21 12.7255 205.62 12.1922 207.182 11.8874C208.744 11.5826 210.344 11.4302 211.983 11.4302C213.43 11.4302 214.859 11.5826 216.269 11.8874C217.678 12.1922 218.936 12.6874 220.04 13.3732C221.183 14.059 222.098 14.9543 222.784 16.0592C223.469 17.126 223.812 18.4404 223.812 20.0025V35.2039ZM217.297 26.9746C216.307 27.6222 215.088 28.0223 213.64 28.1747C212.192 28.289 210.744 28.4795 209.297 28.7462C208.611 28.8605 207.944 29.0319 207.296 29.2605C206.649 29.451 206.077 29.7367 205.582 30.1177C205.087 30.4606 204.687 30.9369 204.382 31.5464C204.115 32.1179 203.982 32.8228 203.982 33.6609C203.982 34.3848 204.191 34.9944 204.61 35.4897C205.029 35.985 205.525 36.385 206.096 36.6898C206.706 36.9565 207.353 37.147 208.039 37.2613C208.763 37.3756 209.411 37.4327 209.982 37.4327C210.706 37.4327 211.487 37.3375 212.325 37.147C213.164 36.9565 213.945 36.6327 214.669 36.1755C215.43 35.7183 216.059 35.1468 216.554 34.461C217.05 33.7371 217.297 32.8609 217.297 31.8322V26.9746Z" fill="white" fill-opacity="0.1"/>
<path d="M178.977 12.2303H185.091V17.9451H185.206C185.396 17.145 185.758 16.364 186.292 15.602C186.863 14.84 187.53 14.1543 188.292 13.5447C189.092 12.897 189.968 12.3827 190.921 12.0017C191.873 11.6207 192.845 11.4302 193.835 11.4302C194.597 11.4302 195.111 11.4492 195.378 11.4873C195.683 11.5254 195.988 11.5635 196.293 11.6016V17.888C195.835 17.8118 195.359 17.7546 194.864 17.7165C194.407 17.6403 193.949 17.6022 193.492 17.6022C192.387 17.6022 191.34 17.8308 190.349 18.288C189.397 18.7071 188.558 19.3548 187.835 20.231C187.111 21.0692 186.539 22.1169 186.12 23.3742C185.701 24.6315 185.491 26.0792 185.491 27.7175V41.776H178.977V12.2303Z" fill="white" fill-opacity="0.1"/>
<path d="M144.211 0.971191H150.726V16.0584H150.84C151.297 15.3345 151.85 14.6868 152.497 14.1153C153.145 13.5439 153.85 13.0676 154.612 12.6866C155.412 12.2675 156.231 11.9628 157.069 11.7723C157.946 11.5437 158.803 11.4294 159.641 11.4294C161.965 11.4294 163.984 11.8485 165.699 12.6866C167.451 13.4867 168.899 14.6106 170.042 16.0584C171.185 17.4681 172.042 19.1254 172.614 21.0303C173.185 22.9353 173.471 24.9736 173.471 27.1452C173.471 29.1264 173.204 31.0503 172.671 32.9172C172.176 34.784 171.395 36.4414 170.328 37.8891C169.299 39.2988 167.985 40.4417 166.385 41.318C164.784 42.1562 162.899 42.5753 160.727 42.5753C159.736 42.5753 158.727 42.4991 157.698 42.3467C156.707 42.2324 155.755 41.9848 154.841 41.6038C153.926 41.2228 153.088 40.7275 152.326 40.1179C151.602 39.5083 150.993 38.7083 150.497 37.7177H150.383V41.7752H144.211V0.971191ZM166.956 27.0309C166.956 25.6974 166.785 24.4021 166.442 23.1448C166.099 21.8875 165.584 20.7827 164.899 19.8302C164.213 18.8396 163.356 18.0586 162.327 17.4871C161.298 16.8775 160.117 16.5727 158.784 16.5727C156.041 16.5727 153.964 17.5252 152.555 19.4302C151.183 21.3351 150.497 23.8687 150.497 27.0309C150.497 28.5168 150.669 29.9074 151.012 31.2027C151.393 32.46 151.945 33.5458 152.669 34.4602C153.393 35.3746 154.25 36.0985 155.241 36.6319C156.269 37.1652 157.45 37.4319 158.784 37.4319C160.27 37.4319 161.527 37.1271 162.556 36.5176C163.584 35.908 164.422 35.1269 165.07 34.1745C165.756 33.1839 166.232 32.079 166.499 30.8599C166.804 29.6026 166.956 28.3263 166.956 27.0309Z" fill="white" fill-opacity="0.1"/>
<path d="M125.935 25.8311C125.782 26.2883 125.649 26.7455 125.535 27.2027C125.458 27.6599 125.42 28.079 125.42 28.4599C125.42 28.8409 125.497 29.1648 125.649 29.4315C125.839 29.6601 126.125 29.7744 126.506 29.7744C127.382 29.7744 128.259 29.4696 129.135 28.86C130.049 28.2123 130.849 27.336 131.535 26.2312C132.259 25.1263 132.831 23.8309 133.25 22.3451C133.707 20.8211 133.935 19.1828 133.935 17.4303C133.935 15.2967 133.535 13.3918 132.735 11.7154C131.935 10.001 130.83 8.55322 129.421 7.37215C128.049 6.19109 126.43 5.29576 124.563 4.68617C122.734 4.03849 120.772 3.71465 118.677 3.71465C116.238 3.71465 114.01 4.17184 111.99 5.08622C110.009 5.96249 108.295 7.18166 106.847 8.74372C105.399 10.2677 104.275 12.0774 103.475 14.1728C102.675 16.2302 102.275 18.459 102.275 20.8592C102.275 23.6404 102.694 26.155 103.532 28.4028C104.409 30.6506 105.59 32.5556 107.076 34.1177C108.6 35.6797 110.39 36.8989 112.448 37.7752C114.543 38.6133 116.791 39.0324 119.191 39.0324C121.706 39.0324 124.087 38.5371 126.335 37.5466C128.583 36.556 130.487 35.1654 132.05 33.3747H136.05C134.221 36.3464 131.802 38.6514 128.792 40.2897C125.782 41.9279 122.506 42.7471 118.963 42.7471C116.029 42.7471 113.267 42.2137 110.676 41.1469C108.085 40.042 105.818 38.5181 103.875 36.575C101.97 34.632 100.465 32.3079 99.3606 29.6029C98.2557 26.8979 97.7033 23.9071 97.7033 20.6306C97.7033 17.7351 98.2557 15.0491 99.3606 12.5727C100.504 10.0581 102.028 7.86744 103.932 6.00059C105.837 4.13374 108.047 2.66693 110.562 1.60016C113.114 0.533386 115.819 0 118.677 0C121.229 0 123.649 0.419088 125.935 1.25726C128.259 2.05734 130.297 3.20031 132.05 4.68617C133.802 6.17204 135.193 7.94364 136.221 10.001C137.288 12.0583 137.822 14.3062 137.822 16.7445C137.822 19.6019 137.326 22.0974 136.336 24.231C135.383 26.3645 134.202 28.1361 132.792 29.5458C131.421 30.9554 129.954 32.0222 128.392 32.7461C126.83 33.4319 125.477 33.7748 124.335 33.7748C123.458 33.7748 122.696 33.5081 122.049 32.9747C121.401 32.4032 121.039 31.565 120.963 30.4601H120.848C120.086 31.3364 119.134 32.0984 117.991 32.7461C116.848 33.3938 115.667 33.7176 114.448 33.7176C113.267 33.7176 112.162 33.489 111.133 33.0318C110.105 32.5365 109.209 31.8889 108.447 31.0888C107.723 30.2506 107.152 29.2981 106.733 28.2314C106.314 27.1265 106.104 25.9645 106.104 24.7453C106.104 22.9165 106.409 21.1259 107.019 19.3733C107.628 17.6208 108.466 16.0397 109.533 14.63C110.638 13.2204 111.952 12.0964 113.476 11.2583C115.038 10.382 116.753 9.94383 118.62 9.94383C119.953 9.94383 121.172 10.2677 122.277 10.9154C123.382 11.563 124.296 12.6108 125.02 14.0585L126.049 10.8011H130.049L125.935 25.8311ZM115.534 29.4315C116.677 29.4315 117.724 29.1076 118.677 28.4599C119.629 27.7742 120.448 26.936 121.134 25.9454C121.82 24.9167 122.353 23.8119 122.734 22.6308C123.153 21.4116 123.363 20.2877 123.363 19.259C123.363 18.5733 123.23 17.9256 122.963 17.316C122.734 16.7064 122.411 16.173 121.991 15.7158C121.61 15.2586 121.134 14.8967 120.563 14.63C120.029 14.3633 119.458 14.23 118.848 14.23C117.667 14.23 116.581 14.5538 115.591 15.2015C114.638 15.8492 113.819 16.6683 113.133 17.6589C112.448 18.6114 111.914 19.6781 111.533 20.8592C111.152 22.0403 110.962 23.1642 110.962 24.231C110.962 25.7549 111.362 27.0122 112.162 28.0028C113 28.9552 114.124 29.4315 115.534 29.4315Z" fill="white" fill-opacity="0.1"/>
<path d="M77.9996 42.5761C75.6374 42.5761 73.5229 42.1951 71.6561 41.4331C69.8273 40.6331 68.2653 39.5472 66.9699 38.1757C65.7126 36.8041 64.7411 35.1658 64.0553 33.2609C63.4076 31.3559 63.0838 29.2605 63.0838 26.9746C63.0838 24.7267 63.4076 22.6503 64.0553 20.7454C64.7411 18.8404 65.7126 17.2022 66.9699 15.8306C68.2653 14.459 69.8273 13.3923 71.6561 12.6303C73.5229 11.8302 75.6374 11.4302 77.9996 11.4302C80.3617 11.4302 82.4571 11.8302 84.2859 12.6303C86.1527 13.3923 87.7148 14.459 88.9721 15.8306C90.2674 17.2022 91.239 18.8404 91.8866 20.7454C92.5724 22.6503 92.9153 24.7267 92.9153 26.9746C92.9153 29.2605 92.5724 31.3559 91.8866 33.2609C91.239 35.1658 90.2674 36.8041 88.9721 38.1757C87.7148 39.5472 86.1527 40.6331 84.2859 41.4331C82.4571 42.1951 80.3617 42.5761 77.9996 42.5761ZM77.9996 37.4327C79.4473 37.4327 80.7046 37.1279 81.7714 36.5184C82.8381 35.9088 83.7144 35.1087 84.4002 34.1181C85.086 33.1276 85.5813 32.0227 85.886 30.8035C86.2289 29.5462 86.4004 28.2699 86.4004 26.9746C86.4004 25.7173 86.2289 24.46 85.886 23.2028C85.5813 21.9455 85.086 20.8406 84.4002 19.8882C83.7144 18.8976 82.8381 18.0975 81.7714 17.4879C80.7046 16.8783 79.4473 16.5735 77.9996 16.5735C76.5518 16.5735 75.2945 16.8783 74.2278 17.4879C73.161 18.0975 72.2847 18.8976 71.5989 19.8882C70.9131 20.8406 70.3988 21.9455 70.0559 23.2028C69.7511 24.46 69.5987 25.7173 69.5987 26.9746C69.5987 28.2699 69.7511 29.5462 70.0559 30.8035C70.3988 32.0227 70.9131 33.1276 71.5989 34.1181C72.2847 35.1087 73.161 35.9088 74.2278 36.5184C75.2945 37.1279 76.5518 37.4327 77.9996 37.4327Z" fill="white" fill-opacity="0.1"/>
<path d="M43.5156 12.2294H48.3732V9.77206C48.3732 7.90521 48.6018 6.4003 49.059 5.25733C49.5162 4.07626 50.1258 3.18093 50.8878 2.57135C51.6498 1.92367 52.507 1.50458 53.4595 1.31408C54.45 1.08549 55.4787 0.971191 56.5455 0.971191C58.6409 0.971191 60.1649 1.10454 61.1174 1.37123V6.45745C60.6983 6.34315 60.2411 6.26695 59.7458 6.22885C59.2886 6.15266 58.7362 6.11456 58.0885 6.11456C57.2122 6.11456 56.4502 6.3241 55.8026 6.74319C55.193 7.16228 54.8882 7.9814 54.8882 9.20057V12.2294H60.4316V17.0871H54.8882V41.7752H48.3732V17.0871H43.5156V12.2294Z" fill="white" fill-opacity="0.1"/>
<path d="M13.6133 12.2303H19.7853V16.5735L19.8996 16.6878C20.8902 15.0496 22.1856 13.7733 23.7857 12.8589C25.3859 11.9064 27.1575 11.4302 29.1005 11.4302C32.3389 11.4302 34.8916 12.2684 36.7584 13.9447C38.6253 15.6211 39.5587 18.1356 39.5587 21.4883V41.776H33.0438V23.2028C32.9676 20.8787 32.4723 19.2024 31.5579 18.1737C30.6435 17.1069 29.2148 16.5735 27.2718 16.5735C26.1669 16.5735 25.1763 16.7831 24.3 17.2022C23.4238 17.5832 22.6808 18.1356 22.0713 18.8595C21.4617 19.5453 20.9854 20.3644 20.6425 21.3169C20.2997 22.2693 20.1282 23.279 20.1282 24.3457V41.776H13.6133V12.2303Z" fill="white" fill-opacity="0.1"/>
<path d="M0 0.971191H6.51493V7.14323H0V0.971191ZM0 12.2294H6.51493V41.7752H0V12.2294Z" fill="white" fill-opacity="0.1"/>
</svg>
