<svg xmlns="http://www.w3.org/2000/svg" xmlns:xlink="http://www.w3.org/1999/xlink"><symbol id="logo"><g fill="none"><mask id="a" style="mask-type:luminance" maskUnits="userSpaceOnUse" x="3" y="4" width="17" height="19"><path d="M3.441 4.175h16.353v18.333H3.441V4.175z" fill="#fff"/></mask><g mask="url(#a)"><path d="M4.229 8.44c.08 1.058.266 2.87.684 4.67.288 1.241.686 2.48 1.232 3.453.81 1.448 1.944 2.599 3.012 3.458.97.781 1.886 1.323 2.463 1.63a16.04 16.04 0 002.457-1.625c1.067-.859 2.202-2.011 3.016-3.463.543-.972.94-2.209 1.228-3.451.417-1.802.604-3.614.684-4.672-1.042-.479-1.78-1.112-2.3-1.765a5.873 5.873 0 01-.955-1.74H7.487a5.82 5.82 0 01-1.232 2.06A6.31 6.31 0 014.23 8.44zm-.05 4.837c-.466-2.013-.652-4.027-.72-5.05l-.018-.267.25-.104c.882-.367 1.533-.854 2.01-1.368a5.087 5.087 0 001.15-2.034l.08-.272h9.375l.08.272c.147.505.419 1.14.907 1.754.492.616 1.21 1.214 2.25 1.648l.25.104-.018.268c-.068 1.022-.255 3.038-.721 5.05-.3 1.303-.723 2.607-1.305 3.65-.869 1.55-2.073 2.775-3.201 3.682a16.65 16.65 0 01-2.756 1.798l-.173.088-.171-.088a16.683 16.683 0 01-2.762-1.802c-1.13-.91-2.332-2.132-3.198-3.678-.584-1.045-1.007-2.35-1.308-3.65z" fill="currentColor"/></g><path d="M11.398 7.497h1.498c1.575-.093 1.98-.109 2.215-.109h.25c3.104 0 4.726.855 4.726 2.472 0 .792-.374 1.367-1.107 1.74-.5.249-.858.405-1.872.606 1.014.125 1.45.28 2.028.576.935.512 1.45 1.367 1.45 2.362 0 .575-.203 1.15-.561 1.57-.702.823-1.685 1.15-3.604 1.15h-5.023v-.218c.484-.202.624-.45.624-1.026V8.74c0-.574-.14-.823-.624-1.025v-.218zm3.167 4.523h.718c1.668 0 2.51-.715 2.51-2.145 0-1.305-.81-2.082-2.136-2.082-.796 0-1.092.248-1.092.917v3.31zm0 .513v4.072c0 .637.312.87 1.139.87.42 0 .764-.062 1.045-.17.764-.327 1.31-1.29 1.31-2.348 0-1.6-.92-2.424-2.714-2.424h-.78zM30.49 18.563v.342c-3.073-1.166-4.586-2.782-5.335-5.828-.11.015-.203.015-.25.015h-.202c-.188 0-.344 0-.64-.046v3.574c0 .575.14.824.624 1.026v.218H20.88v-.218c.483-.202.624-.45.624-1.026V8.74c0-.575-.14-.823-.624-1.025v-.218h1.2c.266 0 .75-.015 1.39-.062a39.169 39.169 0 012.12-.078c2.886 0 4.462 1.01 4.462 2.86 0 .808-.359 1.554-1.03 2.051-.28.218-.78.436-1.481.653.873 2.876 1.95 5.02 2.948 5.642zM24.063 8.88v3.684c.203.015.343.031.452.031h.328c1.763 0 2.667-.808 2.667-2.363 0-1.367-1.06-2.44-2.37-2.44-.765 0-1.077.296-1.077 1.088z" fill="currentColor"/><path d="M31.799 14.538l-.656 2.082a.881.881 0 00-.062.342c0 .358.234.56.905.7v.202h-2.683v-.202c.608-.171.92-.436 1.154-1.042l3.026-9.216h1.997l2.964 9.216c.203.575.483.917.858 1.042v.202h-3.806v-.202c.358-.125.499-.28.499-.591 0-.124-.031-.28-.094-.45l-.67-2.083h-3.433zm.25-.622h2.978L33.53 9.33l-1.482 4.585zM43.918 17.864h-1.981L38.879 8.74c-.202-.575-.468-.87-.857-1.042v-.202h3.79V7.7c-.312.125-.468.327-.468.59 0 .14.031.28.094.452l2.433 7.367 2.324-7.367c.032-.11.047-.218.047-.327 0-.388-.218-.575-.889-.715v-.202h2.605V7.7c-.561.171-.89.467-1.092 1.042l-2.948 9.123z" fill="currentColor"/><path d="M55.134 7.497l.171 1.99h-.358c-.484-1.12-1.17-1.601-2.403-1.601h-.842c-.733 0-1.03.248-1.03.87v3.108h1.42c.998 0 1.497-.326 1.607-1.072h.327v2.658h-.328c-.046-.793-.499-1.135-1.606-1.135h-1.42v4.165c0 .793.281.995 1.326.995h.765c1.45 0 2.277-.56 2.776-1.88l.328.124-.562 2.145H47.49v-.218c.484-.202.624-.45.624-1.026V8.74c0-.574-.14-.823-.624-1.025v-.218h7.644zM65.63 18.563v.342c-3.072-1.166-4.586-2.782-5.334-5.828-.11.015-.203.015-.25.015h-.203c-.187 0-.343 0-.64-.046v3.574c0 .575.14.824.624 1.026v.218h-3.805v-.218c.483-.202.623-.45.623-1.026V8.74c0-.575-.14-.823-.623-1.025v-.218h1.2c.266 0 .75-.015 1.389-.062a39.169 39.169 0 012.121-.078c2.886 0 4.462 1.01 4.462 2.86 0 .808-.36 1.554-1.03 2.051-.28.218-.78.436-1.482.653.874 2.876 1.95 5.02 2.948 5.642zM59.204 8.88v3.684c.203.015.343.031.452.031h.328c1.762 0 2.667-.808 2.667-2.363 0-1.367-1.06-2.44-2.371-2.44-.764 0-1.077.296-1.077 1.088z" fill="currentColor"/><mask id="b" style="mask-type:luminance" maskUnits="userSpaceOnUse" x="9" y="7" width="3" height="3"><path d="M9.053 7.32h2.306v2.373H9.053V7.32z" fill="#fff"/></mask><g mask="url(#b)"><path d="M9.43 7.765l.025.07c.025.098.06.192.09.287l.02.045.004.022a.61.61 0 01.024.064l.048.022c.057.01.116.012.173.02.086.012.168.044.254.058.085.014.18.037.268.062.01.067.016.135.034.2.019.066.026.147.047.219.02.07.03.137.042.206l.013.036.032.169c.055.026.108.055.16.087.157.096.314.191.478.274a.746.746 0 00.195.081c.07.016.144-.038.213-.067.138-.065.266-.148.4-.221.07-.043.136-.089.207-.128a.467.467 0 00.074-.056c.01-.074.025-.148.044-.22.03-.122.061-.244.082-.368l.007-.032c.011-.048.015-.095.027-.14l.004-.034c.055-.025.117-.033.177-.045.08-.02.162-.034.243-.056.111-.029.227-.038.339-.063.018-.084.052-.164.073-.247.041-.113.07-.228.106-.342.023-.05.023-.112.064-.15.082-.034.165-.066.245-.107v-.089c-.117.021-.237.02-.353.044-.117.024-.257.02-.383.046-.125.025-.24.015-.357.036-.065-.002-.129.016-.193.014l-.013.01-.096.004c-.048.01-.098.01-.145.022-.048.012-.117.006-.175.016-.131.01-.265.015-.396.037-.05.002-.098.005-.147.01-.189-.005-.377-.036-.566-.045-.077-.01-.156-.008-.232-.028-.212-.01-.421-.055-.635-.062-.074-.01-.148-.013-.22-.031-.103-.007-.205-.022-.307-.028a1.794 1.794 0 00-.35-.032l-.015.055c.102.063.217.103.32.166.01.07.034.139.051.209z" fill="currentColor"/></g><mask id="c" style="mask-type:luminance" maskUnits="userSpaceOnUse" x="6" y="8" width="6" height="10"><path d="M6.68 8.208h4.678v9.713H6.68V8.208z" fill="#fff"/></mask><g mask="url(#c)"><path d="M15.772 13.489c-.09-.075-.152-.178-.243-.252a7.418 7.418 0 00-.3-.299c-.081-.086-.168-.168-.248-.255.016-.043.05-.078.07-.12.05-.092.117-.176.165-.27.049-.092.105-.151.146-.234.04-.082.094-.165.152-.241.064-.094.121-.192.184-.287.055-.074.096-.157.153-.23.058-.072.12-.177.185-.262l-.003-.019c-.077-.03-.143-.082-.22-.111-.151-.083-.31-.15-.465-.227-.178-.088-.363-.16-.535-.257-.073-.033-.145-.067-.222-.095 0 .17.028.339.022.509a1.021 1.021 0 01-.085-.11c-.058-.089-.139-.161-.2-.249-.061-.087-.14-.176-.197-.272a3.6 3.6 0 01-.231-.323c-.07-.095-.145-.187-.21-.285-.06-.076-.125-.145-.178-.224l.034-.017.03-.003.012-.008a.752.752 0 00.095-.022c.065-.016.132-.024.196-.046.101-.02.202-.049.305-.064.103-.015.183-.045.276-.063l.03-.006a.805.805 0 01.133-.024c.005.15.034.298.037.448.018.184.035.367.047.55.018.035.036.073.07.093.035.02.087.021.13.035.042.014.114.028.164.06l.052.002a.604.604 0 01.075-.05l.011-.034c-.014-.054-.018-.11-.029-.164-.025-.102-.025-.208-.05-.31a.447.447 0 01-.01-.101l-.01-.013c-.008-.128-.036-.253-.049-.38a1.592 1.592 0 00-.03-.198 3.612 3.612 0 00-.029-.226c-.01-.048-.05-.075-.087-.102a2.875 2.875 0 01-.312-.298c-.075-.068-.141-.144-.214-.214l-.069.012c-.127.035-.26.04-.383.086l-.03.004c-.176.054-.357.093-.535.145-.1.029-.2.055-.3.08l-.023.007c-.054.014-.108.024-.161.035-.08.03-.17.026-.25.065l-.003.038c-.018.11-.034.219-.062.325-.005.054-.018.108-.019.162l.033.007c.104.08.195.175.292.262.076.062.14.136.215.2.074.065.124.107.183.164.083.074.163.152.252.22s.177.13.25.212c.04.04.058.093.094.135.036.043.054.104.091.15.037.048.078.124.12.184.04.06.075.121.12.178.088.112.161.236.246.351.065.084.111.18.178.261.048.054.085.116.127.174-.053.063-.106.126-.161.187-.106.134-.22.264-.332.394-.112.149-.246.278-.354.429-.061.077-.127.148-.185.227-.058.08-.118.13-.17.2-.091.115-.19.226-.276.346-.04.065-.05.14-.08.207-.023.05-.033.105-.055.154-.034.104-.065.21-.106.31l-.004.022-.018.046c-.015.047-.028.095-.045.14l-.007.021c-.03.098-.07.192-.104.289-.034.096-.057.169-.084.254l-.014.033c-.02.069-.019.14-.033.21-.004.05-.003.102-.006.154l.002-.009c-.015.147-.013.297-.049.44-.05-.018-.09-.055-.136-.085a.718.718 0 01-.11-.096c-.17.104-.347.19-.532.26-.11.056-.223.1-.334.151-.062.023-.119.062-.184.075-.046-.004-.085-.027-.125-.044-.1-.048-.206-.082-.302-.136-.203-.085-.415-.16-.592-.295-.077.05-.16.096-.231.153a3.766 3.766 0 00-.082-.063c-.014-.223-.02-.446-.048-.667l-.01-.01v-.035c-.037-.09-.057-.186-.094-.275l-.025-.058c-.034-.115-.076-.229-.115-.342l-.023-.06c-.02-.054-.035-.11-.058-.162l-.022-.08-.016-.02a.647.647 0 00-.045-.128 5.551 5.551 0 00-.09-.266.565.565 0 00-.117-.184c-.068-.078-.126-.166-.195-.244-.133-.153-.26-.309-.385-.468-.204-.251-.418-.494-.626-.743-.064-.077-.133-.15-.192-.231.072-.105.159-.199.223-.31.057-.084.12-.166.175-.253.065-.113.156-.206.222-.317.05-.07.092-.144.145-.212.053-.068.098-.163.148-.243.072-.122.193-.2.298-.289.098-.07.176-.163.27-.237.13-.12.26-.239.387-.362.111-.097.215-.202.332-.292-.01-.054-.018-.109-.027-.163-.031-.115-.038-.234-.068-.35-.064-.02-.13-.028-.195-.038a2.46 2.46 0 01-.237-.057c-.107-.03-.216-.055-.323-.086l-.03-.012-.104-.028c-.072-.026-.147-.037-.219-.059-.071-.021-.155-.037-.23-.065a2.7 2.7 0 00-.29-.06l-.047-.013a.568.568 0 00-.057-.013c-.075.055-.137.127-.204.193-.093.09-.18.188-.28.274-.038.033-.07.075-.112.105-.018.015-.043.028-.04.053-.002.057-.005.115-.005.171l-.01.015c0 .062-.02.12-.025.182-.007.043-.008.087-.018.13a.56.56 0 01-.012.091c-.017.103-.028.207-.046.31a4.054 4.054 0 00-.042.262.494.494 0 00-.02.104c-.007.071-.025.143-.025.215l.076-.032c.088-.013.18-.014.264-.048l.025-.005.081-.024.03-.012c.008-.097.032-.193.038-.29.014-.142.038-.283.047-.426.01-.142.018-.25.032-.374.035.011.072.022.11.032.131.028.263.056.395.082.133.025.296.073.446.097l.035.014c.043.01.087.018.132.023a1.23 1.23 0 01-.104.132c-.095.132-.194.26-.29.391-.096.13-.193.26-.28.399-.04.057-.09.109-.13.166a2.166 2.166 0 01-.167.204c-.056.063-.099.137-.16.196 0-.098.017-.196.031-.294.005-.077.013-.153.027-.229-.108.049-.222.084-.324.144-.101.06-.221.102-.333.152-.112.05-.231.118-.351.169-.161.068-.311.155-.47.226.035.045.064.094.095.141.058.083.114.167.168.25.028.043.064.08.089.125.08.154.191.29.278.44.087.15.17.284.265.423.046.08.107.15.15.231.008.02.03.04.017.061-.036.062-.092.107-.143.156-.102.103-.207.203-.31.304-.04.047-.082.093-.127.137-.045.043-.094.112-.15.16-.055.049-.121.131-.194.183l-.003.034c.053.009.105.022.158.033.053.01.14.029.209.048l.035.013c.054.011.107.026.161.041.054.015.118.018.173.038.125.038.254.06.382.09l.045.013c.05.009.101.02.15.035.037.01.074.017.112.02-.103.17-.157.364-.254.537-.015.027-.04.057-.021.088.055.103.104.211.151.32.109.161.208.33.31.495.108.143.186.304.29.449.036.067.072.134.11.2.004-.147 0-.294.005-.443.01-.071.007-.143.013-.216.01-.051.002-.103.015-.155.009-.19.02-.38.033-.571.004-.022 0-.047.017-.063.06-.075.138-.133.205-.2.067-.068.123-.106.179-.167.055-.06.103-.088.152-.134-.002.039 0 .079-.011.117a1.447 1.447 0 00-.019.146c-.023.063-.026.13-.039.196l-.014.047-.002.035-.01.014c-.006.076-.02.151-.03.226l-.014.046c-.012.061-.021.123-.035.184-.014.06-.025.159-.042.237a1.2 1.2 0 00-.029.13c-.011.105-.043.206-.063.31l-.013.034a4.965 4.965 0 00-.032.14l-.014.034c-.006.034-.017.069-.018.103.017.066.056.122.087.18.032.06.075.135.108.205.038.056.07.116.098.177.055.085.092.18.151.262.06.082.095.175.143.261.02.042.043.082.067.12l.007.021c.053.079.093.166.142.246.005-.032.01-.064.018-.095l.014-.045.01-.046.01-.037.008-.008c.01-.063.023-.125.04-.187.02-.067.025-.137.05-.202l.03-.114c.158.131.322.255.487.375.046.034.082.08.129.112s.114.092.177.131c.05.032.095.068.137.11.073.069.162.12.237.188.053.041.101.09.154.132.038-.032.073-.068.113-.099.112-.084.214-.178.326-.262.08-.072.174-.126.253-.197.08-.072.188-.152.286-.222.114-.09.23-.178.35-.26.011.046.021.09.034.137l.014.034c.01.05.016.1.029.15.029.069.032.145.047.218l.012.036.031.15.017-.005a.48.48 0 01.044-.089c.073-.098.118-.211.18-.316.06-.105.13-.237.2-.352.13-.247.271-.487.39-.74a1.955 1.955 0 01-.039-.084 7.273 7.273 0 01-.09-.379c-.02-.08-.022-.163-.043-.244-.02-.08-.028-.184-.054-.274-.025-.09-.026-.152-.043-.228-.016-.076-.022-.163-.045-.242-.023-.08-.025-.186-.05-.278-.026-.092-.03-.162-.037-.244.059.053.116.107.179.154.065.072.145.13.214.199.06.052.111.111.173.16 0 .106.012.212.013.32.009.075.012.15.01.227l.011.012c0 .057-.002.114.007.17.017.236.017.473.02.71a.256.256 0 00.036-.051c.017-.068.056-.127.092-.185.062-.108.14-.208.2-.319.098-.135.18-.281.27-.421.032-.045.052-.098.085-.143.07-.093.098-.208.15-.311.01-.025.025-.052.018-.08-.007-.03-.037-.076-.052-.116-.015-.039-.043-.087-.06-.132-.024-.092-.083-.17-.113-.26l-.033-.068.264-.06.047-.012c.045-.011.091-.02.137-.03.068-.021.139-.032.21-.044l.034-.014c.054-.013.109-.022.162-.036l.033-.012c.059-.01.117-.024.173-.042.07-.02.14-.032.21-.05l.116-.023.05-.005c-.055-.064-.12-.116-.172-.178z" fill="currentColor"/></g><mask id="d" style="mask-type:luminance" maskUnits="userSpaceOnUse" x="8" y="9" width="4" height="6"><path d="M8.39 9.767h2.969v4.693H8.39V9.767z" fill="#fff"/></mask><g mask="url(#d)"><path d="M13.317 12.63c.112-.09.217-.19.335-.275.038-.027.07-.061.104-.092.063-.056.134-.104.193-.165.059-.06.13-.106.194-.163.064-.056.115-.099.176-.145-.049-.07-.11-.13-.163-.197-.053-.067-.13-.142-.187-.217-.085-.115-.193-.213-.252-.345-.029-.07-.066-.137-.096-.207-.017-.038-.035-.078-.067-.106-.065-.058-.122-.124-.192-.177a7.941 7.941 0 00-.353-.304 2.149 2.149 0 00-.165-.144c-.088-.065-.169-.139-.252-.21-.04-.032-.085-.062-.123-.1l-.019-.003c-.217.12-.44.226-.672.317-.136.047-.264.112-.396.17-.058-.002-.107-.035-.16-.052-.191-.098-.399-.156-.59-.254-.118-.059-.24-.112-.355-.182-.201.176-.413.338-.612.515-.095.074-.183.155-.273.235-.07.049-.126.112-.19.166a.285.285 0 00-.087.129c-.015.041-.04.078-.057.118-.034.066-.055.14-.102.198-.109.137-.22.272-.338.402a2.175 2.175 0 01-.21.231l.005.015c.11.082.207.182.314.268.061.045.11.105.17.152.12.09.226.198.35.285.125.086.239.19.347.296.088.077.173.159.266.231-.016.116-.051.229-.068.345a1.72 1.72 0 00-.055.3c.081.068.187.093.279.145l.018.047.01.045c.027.086.028.179.056.265.013.054.025.11.047.161.022.052.026.076.037.114.056-.057.115-.112.167-.17-.003-.047.005-.108-.035-.143.115-.048.236-.085.35-.138.114-.053.236-.103.354-.153.098-.047.194-.093.296-.13.024-.011.052-.027.079-.011.084.038.17.074.255.114.15.066.3.13.451.194.087.038.174.085.27.093.014.066.011.133.039.195.027.063.04.112.09.145a.615.615 0 00.104-.181c.025-.065.03-.101.052-.149.012-.088.016-.178.027-.267.097-.072.219-.103.315-.177 0-.072-.019-.14-.028-.21-.03-.065-.034-.139-.05-.209-.011-.043-.029-.085-.043-.126-.004-.024-.023-.05-.017-.075.15-.14.3-.281.457-.413zm-.56-.957c-.052.024-.102.052-.156.072-.053.019-.084-.004-.122.013-.059.055-.103.123-.151.187-.049.063-.1.127-.153.19.004.026.01.053.019.08.014.108.029.217.05.324.002.063.002.126.005.19l.014.036c.002.023.03.055.004.073-.08.008-.161 0-.24.003-.108.108-.23.198-.338.307a2.3 2.3 0 01-.315.3c-.046-.037-.1-.064-.142-.105-.064-.064-.127-.126-.185-.195-.109-.092-.202-.2-.318-.283a.96.96 0 00-.21-.016l-.029-.036a3.45 3.45 0 01.002-.218.892.892 0 00.01-.128l.01-.01c.008-.124.038-.247.037-.372a.588.588 0 01-.175-.195c-.016-.027-.03-.056-.051-.079a.35.35 0 00-.128-.055c-.064-.018-.123-.046-.184-.069-.061-.023-.128-.06-.194-.084-.024-.008-.05-.016-.067-.034-.126-.127-.226-.275-.342-.41-.009-.012-.022-.027-.012-.043.038-.074.097-.131.154-.19.031-.034.083-.033.118-.063.065-.003.126.017.188.03l.077.023.034.011c.07.03.147.04.22.065l.082.027.034.012c.06.024.124.038.186.058l.026.004.023.024c.008.048.02.095.033.141.013.073.022.146.034.219.029.081.026.169.041.251.007.023.012.046.018.07.017.142.038.283.045.426-.005.041-.008.082-.016.124-.002.102-.03.202-.03.304.308 0 .614.005.921.002.172 0 .344-.003.516 0l-.023-.075c-.008-.026-.003-.029-.005-.044-.02-.095-.027-.192-.039-.288a.703.703 0 01.015-.22c.015-.071.015-.162.034-.24.018-.098.032-.196.04-.295l.01-.013.003-.034c.02-.104.034-.21.058-.313l.012-.027c.068-.03.14-.045.212-.066l.022-.006.034-.012.046-.015c.15-.046.302-.089.453-.13.045-.016.091 0 .138.002.108.043.213.131.222.255-.01.07-.059.125-.107.174-.07.075-.132.16-.21.228a.467.467 0 00-.052.062l-.029.01c-.067 0-.119.04-.177.066z" fill="currentColor"/></g><path d="M10.093 11.19c-.034-.048-.099-.056-.149-.082a1.103 1.103 0 00-.248-.08.922.922 0 01-.126.05c.019.04.05.072.08.104l.139.173c.027.036.072.05.114.063.075.036.153.064.234.084a.143.143 0 00.112-.015v-.065c-.041-.086-.104-.154-.156-.232z" fill="currentColor"/><mask id="e" style="mask-type:luminance" maskUnits="userSpaceOnUse" x="10" y="14" width="2" height="2"><path d="M10.305 14.221h1.054v1.449h-1.054V14.22z" fill="#fff"/></mask><g mask="url(#e)"><path d="M12.047 14.67c-.066-.049-.127-.103-.193-.153-.123-.094-.244-.196-.387-.261l-.034-.01-.046-.015a.684.684 0 00-.105.03l-.056.019c-.1.045-.185.115-.27.181-.046.048-.109.076-.157.12-.085.078-.182.14-.268.215-.042.035-.074.08-.115.118-.04.038-.056.069-.06.113a.684.684 0 01-.029.117c-.008.024-.014.05-.02.073l.055.044c.084.031.166.066.246.106.06.023.121.046.18.072.1.045.206.072.303.12l.018.006c.08.03.155.07.236.1.066.003.122-.035.181-.057.176-.08.36-.141.536-.22.084-.036.167-.075.254-.105a.627.627 0 00.096-.05c-.006-.078-.022-.152-.038-.227-.06-.152-.21-.235-.327-.336z" fill="currentColor"/></g></g></symbol><symbol id="search"><g fill="none"><path fill-rule="evenodd" clip-rule="evenodd" d="M9.809 10.532a5.967 5.967 0 11.723-.723L14 13.277l-.723.723-3.468-3.468zm1.102-4.565a4.944 4.944 0 11-9.888 0 4.944 4.944 0 019.888 0z" fill="currentColor"/></g></symbol><symbol id="star"><g fill="none"><path fill-rule="evenodd" clip-rule="evenodd" d="M7.08 1.586C7.33 1.153 7.754.58 8.5.58c.747 0 1.171.573 1.42 1.006.26.454.52 1.105.825 1.867l.054.133c.19.473.31.773.425.993.107.203.179.276.237.32.059.043.149.09.374.135.243.047.564.077 1.071.122l.24.022c.75.067 1.4.125 1.879.238.47.112 1.095.347 1.321 1.02.227.674-.128 1.239-.436 1.612-.313.38-.796.82-1.354 1.328l-.444.405a11.63 11.63 0 00-.649.616c-.13.141-.172.217-.194.273a.863.863 0 00-.034.108c-.014.058-.024.145.002.335.027.206.084.466.175.879l.066.295c.154.694.283 1.278.334 1.727.045.405.073 1.002-.324 1.445a1.618 1.618 0 01-.778.48c-.574.157-1.096-.136-1.437-.359-.377-.246-.84-.624-1.391-1.074l-.037-.03c-.394-.321-.647-.527-.855-.666-.195-.131-.291-.161-.354-.171a.855.855 0 00-.271 0c-.063.01-.16.04-.355.171-.208.14-.461.345-.855.666l-.037.03c-.55.45-1.013.828-1.391 1.074-.34.223-.862.516-1.437.36-.3-.083-.57-.25-.778-.481-.397-.443-.369-1.04-.323-1.445.05-.448.18-1.033.334-1.727l.065-.295c.091-.413.148-.674.175-.879.026-.19.016-.277.002-.335a.862.862 0 00-.034-.108c-.022-.056-.064-.132-.194-.273-.14-.152-.337-.332-.65-.616l-.443-.405c-.558-.508-1.04-.948-1.354-1.328C.783 7.675.428 7.11.654 6.437c.226-.674.85-.91 1.321-1.02.48-.114 1.129-.172 1.88-.24l.061-.005.178-.016c.507-.045.828-.075 1.071-.122.225-.044.316-.092.374-.135.058-.044.13-.117.237-.32.115-.22.236-.52.426-.993l.03-.075.023-.058c.305-.762.566-1.413.826-1.867z" fill="currentColor"/></g></symbol><symbol id="tg"><g fill="none"><path d="M21.015.333L1.527 7.9c-1.33.538-1.322 1.285-.244 1.618l5.004 1.571 11.576-7.354c.547-.335 1.047-.155.636.213L9.12 12.47h-.002l.002.002-.345 5.192c.506 0 .729-.233 1.012-.509l2.43-2.38 5.056 3.76c.931.517 1.6.251 1.833-.869L22.424 1.92c.34-1.371-.52-1.992-1.409-1.587z" fill="currentColor"/></g></symbol><symbol id="vk"><g fill="none"><path d="M15.138 7.226c-.457-.17-.457-.82-.485-1.273-.114-1.613.457-4.075-.229-5.122-.485-.623-2.829-.566-4.257-.48-.4.057-.886.14-1.228.311-.343.17-.686.453-.686.707 0 .368.857.312 1.171.793.343.51.343 1.612.343 2.518 0 1.047-.172 2.434-.6 2.49-.657.028-1.028-.623-1.371-1.104A18.839 18.839 0 015.91 2.84c-.257-.594-.4-1.245-.772-1.5-.572-.396-1.6-.424-2.6-.396C1.623.972.308.859.052 1.396c-.2.595.228 1.16.457 1.642 1.171 2.519 2.428 4.726 3.972 6.82 1.429 1.952 2.77 3.51 5.4 4.33.743.226 4 .877 4.657 0 .228-.34.171-1.104.286-1.67.114-.566.257-1.132.8-1.16.457-.028.714.367 1 .65.315.312.571.567.8.85.543.538 1.114 1.273 1.8 1.557.943.397 2.4.283 3.771.226 1.115-.028 1.915-.254 2.001-.905.058-.51-.515-1.245-.858-1.67-.857-1.047-1.257-1.359-2.229-2.321-.428-.425-.971-.878-.971-1.387-.029-.311.228-.594.457-.905 1-1.472 2-2.518 2.914-4.047.257-.453.858-1.5.63-2.01C24.68.831 23.251 1 22.365 1c-1.142 0-2.628-.085-2.914.141-.543.368-.772.963-1.029 1.529-.571 1.302-1.343 2.631-2.143 3.622-.286.34-.828 1.047-1.143.934h.001z" fill="currentColor"/></g></symbol><symbol id="wt-app"><g fill="none"><path fill-rule="evenodd" clip-rule="evenodd" d="M17.903 16.033c-.265.75-1.319 1.371-2.16 1.553-.575.122-1.325.219-3.853-.829-2.839-1.176-6.781-5.366-6.781-8.154 0-1.42.818-3.072 2.25-3.072.688 0 .84.013 1.066.557.266.64.912 2.218.99 2.38.317.663-.324 1.051-.79 1.63-.148.173-.316.36-.128.684.187.317.834 1.371 1.784 2.218 1.228 1.093 2.223 1.443 2.58 1.591.265.11.582.085.775-.122.246-.266.55-.705.86-1.14.22-.31.498-.348.79-.238.196.068 2.699 1.23 2.804 1.416.078.136.078.776-.187 1.526zM11.503.5h-.006C5.432.5.5 5.434.5 11.5c0 2.405.776 4.637 2.094 6.447l-1.37 4.087 4.227-1.35a10.915 10.915 0 006.051 1.816c6.065 0 10.998-4.934 10.998-11S17.567.5 11.502.5z" fill="currentColor"/></g></symbol></svg>