<svg width="369" height="43" fill="none" xmlns="http://www.w3.org/2000/svg"><path d="M369 41.776h-6.401V37.66h-.114c-.8 1.486-2 2.686-3.6 3.6-1.562.877-3.162 1.315-4.801 1.315-3.886 0-6.705-.953-8.458-2.858-1.714-1.943-2.571-4.857-2.571-8.743V12.23h6.515v18.116c0 2.59.495 4.42 1.485 5.486.991 1.067 2.382 1.6 4.172 1.6 1.372 0 2.515-.21 3.429-.628.915-.42 1.658-.972 2.229-1.657.571-.724.972-1.582 1.2-2.572.267-.99.4-2.058.4-3.2V12.23H369v29.546zM322.963 12.23h6.115v5.715h.114c.191-.8.553-1.581 1.086-2.343a11.363 11.363 0 012-2.057c.8-.648 1.677-1.162 2.629-1.543a7.787 7.787 0 012.915-.572c.762 0 1.276.02 1.543.057l.914.115v6.286a16.259 16.259 0 00-1.429-.172 8.322 8.322 0 00-1.371-.114 7.409 7.409 0 00-3.143.686c-.953.42-1.791 1.067-2.515 1.943-.724.838-1.295 1.886-1.714 3.143-.42 1.258-.629 2.705-.629 4.344v14.058h-6.515V12.23zM307.572 34.06h7.944v7.716h-7.944V34.06zM292.213 12.23h6.115v5.715h.114c.191-.8.553-1.581 1.086-2.343a11.33 11.33 0 012-2.057c.8-.648 1.676-1.162 2.629-1.543a7.782 7.782 0 012.914-.572c.762 0 1.277.02 1.544.057l.914.115v6.286a16.305 16.305 0 00-1.429-.172 8.322 8.322 0 00-1.371-.114 7.417 7.417 0 00-3.144.686c-.952.42-1.79 1.067-2.514 1.943-.724.838-1.295 1.886-1.715 3.143-.419 1.258-.628 2.705-.628 4.344v14.058h-6.515V12.23zM280.746 24.403a9.922 9.922 0 00-.686-2.972 6.962 6.962 0 00-1.486-2.457 6.446 6.446 0 00-2.286-1.715c-.876-.457-1.867-.686-2.972-.686-1.143 0-2.19.21-3.143.63a6.964 6.964 0 00-2.4 1.657c-.648.685-1.181 1.504-1.6 2.457a9.086 9.086 0 00-.629 3.086h15.202zm-15.202 4.286c0 1.143.153 2.248.457 3.315.343 1.066.839 2 1.486 2.8.648.8 1.467 1.448 2.458 1.943.99.457 2.171.686 3.543.686 1.905 0 3.429-.4 4.572-1.2 1.181-.839 2.057-2.077 2.629-3.715h6.172c-.343 1.6-.934 3.029-1.772 4.286a12.76 12.76 0 01-3.029 3.2c-1.181.839-2.514 1.467-4 1.886a15.095 15.095 0 01-4.572.686c-2.324 0-4.382-.38-6.172-1.143-1.791-.762-3.315-1.829-4.572-3.2-1.219-1.372-2.153-3.01-2.8-4.915-.61-1.905-.915-4-.915-6.286 0-2.096.324-4.077.972-5.944.686-1.905 1.638-3.562 2.857-4.972a13.799 13.799 0 014.515-3.429c1.753-.838 3.734-1.257 5.943-1.257 2.324 0 4.401.495 6.23 1.486 1.866.952 3.409 2.229 4.629 3.829 1.219 1.6 2.095 3.448 2.628 5.543.572 2.058.724 4.191.458 6.401h-21.717zM227.908 12.23h7.086l7.487 22.688h.114l7.201-22.688h6.743l-10.572 29.546h-7.315L227.908 12.23zM223.812 35.204c0 .8.095 1.371.286 1.714.229.343.648.515 1.257.515h.686c.267 0 .572-.038.914-.115v4.515a7.866 7.866 0 01-.914.229c-.343.114-.705.21-1.086.285a11.825 11.825 0 01-2.114.23c-1.334 0-2.439-.268-3.315-.801-.876-.533-1.448-1.467-1.714-2.8-1.296 1.257-2.896 2.171-4.801 2.743-1.867.571-3.676.857-5.429.857-1.333 0-2.61-.19-3.829-.571-1.219-.343-2.305-.858-3.257-1.543a8.486 8.486 0 01-2.229-2.686c-.534-1.105-.8-2.382-.8-3.83 0-1.828.324-3.314.971-4.457.686-1.143 1.562-2.038 2.629-2.686a11.714 11.714 0 013.658-1.371 38.6 38.6 0 014.114-.686 28.444 28.444 0 013.372-.457c1.067-.115 2-.286 2.8-.515.839-.228 1.486-.571 1.943-1.028.496-.496.743-1.22.743-2.172 0-.838-.209-1.524-.628-2.057a3.533 3.533 0 00-1.486-1.2 5.26 5.26 0 00-1.943-.572 13.22 13.22 0 00-2.058-.172c-1.828 0-3.333.381-4.514 1.143s-1.848 1.944-2 3.544h-6.515c.114-1.905.571-3.486 1.371-4.744a9.581 9.581 0 013.029-3.028c1.257-.762 2.667-1.296 4.229-1.6a25.008 25.008 0 014.801-.458c1.447 0 2.876.153 4.286.457 1.409.305 2.667.8 3.771 1.486a8.053 8.053 0 012.744 2.686c.685 1.067 1.028 2.381 1.028 3.944v15.2zm-6.515-8.23c-.99.648-2.209 1.048-3.657 1.2a42.322 42.322 0 00-4.343.572c-.686.114-1.353.286-2.001.515a5.178 5.178 0 00-1.714.857c-.495.343-.895.819-1.2 1.428-.267.572-.4 1.277-.4 2.115 0 .724.209 1.333.628 1.829.419.495.915.895 1.486 1.2.61.267 1.257.457 1.943.571a12.6 12.6 0 001.943.172c.724 0 1.505-.096 2.343-.286a7.444 7.444 0 002.344-.971 6.282 6.282 0 001.885-1.715c.496-.724.743-1.6.743-2.629v-4.857zM178.977 12.23h6.114v5.715h.115c.19-.8.552-1.581 1.086-2.343a11.33 11.33 0 012-2.057c.8-.648 1.676-1.162 2.629-1.543a7.782 7.782 0 012.914-.572c.762 0 1.276.02 1.543.057l.915.115v6.286a16.351 16.351 0 00-1.429-.172 8.334 8.334 0 00-1.372-.114 7.412 7.412 0 00-3.143.686c-.952.42-1.791 1.067-2.514 1.943-.724.838-1.296 1.886-1.715 3.143-.419 1.258-.629 2.705-.629 4.344v14.058h-6.514V12.23zM144.211.971h6.515v15.087h.114a8.974 8.974 0 011.657-1.943 9.841 9.841 0 012.115-1.428c.8-.42 1.619-.724 2.457-.915a10.172 10.172 0 012.572-.343c2.324 0 4.343.42 6.058 1.258 1.752.8 3.2 1.924 4.343 3.371 1.143 1.41 2 3.067 2.572 4.972.571 1.905.857 3.944.857 6.115 0 1.981-.267 3.905-.8 5.772-.495 1.867-1.276 3.524-2.343 4.972-1.029 1.41-2.343 2.553-3.943 3.429-1.601.838-3.486 1.257-5.658 1.257-.991 0-2-.076-3.029-.228a10.52 10.52 0 01-2.857-.743 10.408 10.408 0 01-2.515-1.486c-.724-.61-1.333-1.41-1.829-2.4h-.114v4.057h-6.172V.971zm22.745 26.06c0-1.334-.171-2.629-.514-3.886-.343-1.258-.858-2.362-1.543-3.315a7.562 7.562 0 00-2.572-2.343c-1.029-.61-2.21-.914-3.543-.914-2.743 0-4.82.952-6.229 2.857-1.372 1.905-2.058 4.439-2.058 7.6 0 1.487.172 2.877.515 4.173.381 1.257.933 2.343 1.657 3.257a8.238 8.238 0 002.572 2.172c1.028.533 2.209.8 3.543.8 1.486 0 2.743-.305 3.772-.914a7.816 7.816 0 002.514-2.343 9.227 9.227 0 001.429-3.315c.305-1.257.457-2.534.457-3.83zM125.935 25.831a18.18 18.18 0 00-.4 1.372 7.613 7.613 0 00-.115 1.257c0 .38.077.705.229.971.19.23.476.343.857.343.876 0 1.753-.304 2.629-.914.914-.648 1.714-1.524 2.4-2.629.724-1.105 1.296-2.4 1.715-3.886.457-1.524.685-3.162.685-4.915 0-2.133-.4-4.038-1.2-5.715a12.469 12.469 0 00-3.314-4.343c-1.372-1.18-2.991-2.076-4.858-2.686-1.829-.648-3.791-.971-5.886-.971-2.439 0-4.667.457-6.687 1.371a15.461 15.461 0 00-5.143 3.658c-1.448 1.524-2.572 3.333-3.372 5.429-.8 2.057-1.2 4.286-1.2 6.686 0 2.781.419 5.296 1.257 7.544.877 2.248 2.058 4.153 3.544 5.715a16.394 16.394 0 005.372 3.657c2.095.838 4.343 1.257 6.743 1.257 2.515 0 4.896-.495 7.144-1.485 2.248-.991 4.152-2.382 5.715-4.172h4c-1.829 2.971-4.248 5.276-7.258 6.915-3.01 1.638-6.286 2.457-9.829 2.457-2.934 0-5.696-.533-8.287-1.6-2.591-1.105-4.858-2.629-6.801-4.572-1.905-1.943-3.41-4.267-4.514-6.972-1.105-2.705-1.658-5.696-1.658-8.972 0-2.896.553-5.582 1.658-8.058 1.143-2.515 2.667-4.706 4.571-6.572a21.211 21.211 0 016.63-4.4C113.114.532 115.819 0 118.677 0c2.552 0 4.972.42 7.258 1.257 2.324.8 4.362 1.943 6.115 3.43A16.668 16.668 0 01136.221 10c1.067 2.057 1.601 4.305 1.601 6.743 0 2.858-.496 5.353-1.486 7.487-.953 2.133-2.134 3.905-3.544 5.315-1.371 1.41-2.838 2.476-4.4 3.2-1.562.686-2.915 1.029-4.057 1.029-.877 0-1.639-.267-2.286-.8-.648-.572-1.01-1.41-1.086-2.515h-.115c-.762.876-1.714 1.638-2.857 2.286-1.143.648-2.324.972-3.543.972a8.071 8.071 0 01-3.315-.686 9.168 9.168 0 01-2.686-1.943 9.833 9.833 0 01-1.714-2.858 9.749 9.749 0 01-.629-3.486c0-1.829.305-3.62.915-5.372a17.1 17.1 0 012.514-4.743 12.828 12.828 0 013.943-3.372c1.562-.876 3.277-1.314 5.144-1.314 1.333 0 2.552.324 3.657.971 1.105.648 2.019 1.696 2.743 3.144l1.029-3.258h4l-4.114 15.03zm-10.401 3.6c1.143 0 2.19-.323 3.143-.971a10.29 10.29 0 002.457-2.515 13.309 13.309 0 001.6-3.314c.419-1.22.629-2.343.629-3.372a4.79 4.79 0 00-.4-1.943 4.866 4.866 0 00-.972-1.6 4.072 4.072 0 00-1.428-1.086 3.784 3.784 0 00-1.715-.4 5.829 5.829 0 00-3.257.971 9.417 9.417 0 00-2.458 2.458 11.474 11.474 0 00-1.6 3.2c-.381 1.181-.571 2.305-.571 3.372 0 1.524.4 2.781 1.2 3.772.838.952 1.962 1.428 3.372 1.428zM78 42.576c-2.363 0-4.477-.38-6.344-1.143-1.829-.8-3.39-1.886-4.686-3.257-1.257-1.372-2.229-3.01-2.915-4.915-.647-1.905-.971-4-.971-6.286 0-2.248.324-4.325.971-6.23.686-1.905 1.658-3.543 2.915-4.914 1.295-1.372 2.857-2.439 4.686-3.2 1.867-.8 3.981-1.2 6.344-1.2 2.362 0 4.457.4 6.286 1.2 1.867.761 3.429 1.828 4.686 3.2 1.295 1.371 2.267 3.01 2.915 4.914.685 1.905 1.028 3.982 1.028 6.23 0 2.285-.343 4.38-1.028 6.286-.648 1.905-1.62 3.543-2.915 4.915-1.257 1.371-2.82 2.457-4.686 3.257-1.829.762-3.924 1.143-6.286 1.143zm0-5.143c1.447 0 2.705-.305 3.771-.915a7.95 7.95 0 002.63-2.4 10.048 10.048 0 001.485-3.315 14.28 14.28 0 000-7.6c-.305-1.258-.8-2.362-1.486-3.315a7.95 7.95 0 00-2.629-2.4c-1.066-.61-2.324-.915-3.771-.915-1.448 0-2.706.305-3.772.915a7.949 7.949 0 00-2.63 2.4c-.685.953-1.2 2.057-1.542 3.315a15.958 15.958 0 00-.457 3.772c0 1.295.152 2.571.457 3.828.343 1.22.857 2.325 1.543 3.315a7.949 7.949 0 002.629 2.4c1.067.61 2.324.915 3.772.915zM43.516 12.23h4.857V9.771c0-1.867.229-3.372.686-4.515.457-1.18 1.067-2.076 1.829-2.686a5.617 5.617 0 012.572-1.257c.99-.229 2.019-.343 3.085-.343 2.096 0 3.62.134 4.572.4v5.086a7.358 7.358 0 00-1.371-.228 10.268 10.268 0 00-1.657-.114c-.877 0-1.639.21-2.286.628-.61.42-.915 1.238-.915 2.458v3.028h5.544v4.858h-5.544v24.688h-6.515V17.087h-4.857V12.23zM13.613 12.23h6.172v4.343l.115.115c.99-1.638 2.286-2.915 3.886-3.83 1.6-.952 3.371-1.428 5.314-1.428 3.239 0 5.792.838 7.658 2.515 1.867 1.676 2.8 4.19 2.8 7.543v20.288h-6.514V23.203c-.076-2.324-.572-4-1.486-5.03-.915-1.066-2.343-1.6-4.286-1.6-1.105 0-2.096.21-2.972.63a6.002 6.002 0 00-2.229 1.657c-.61.685-1.086 1.504-1.429 2.457a8.875 8.875 0 00-.514 3.029v17.43h-6.515V12.23zM0 .971h6.515v6.172H0V.971zM0 12.23h6.515v29.546H0V12.23z" fill="#fff" fill-opacity=".1"/></svg>